<svg xmlns="http://www.w3.org/2000/svg" viewBox="0 0 15 15" height="15" width="15"><title>aerialway_11.svg</title><rect fill="none" x="0" y="0" width="15" height="15"></rect><rect x="0" y="0" width="15" height="15" rx="0" ry="0" fill="#4898ff"></rect><path fill="#fff" transform="translate(2 2)" d="M9,4.5H6V3.1c0.1992-0.1183,0.3512-0.3021,0.43-0.52L9.5,2C9.7761,2,10,1.7761,10,1.5S9.7761,1,9.5,1
	L6.25,1.61C5.8847,1.1957,5.2528,1.156,4.8386,1.5213C4.713,1.6321,4.6172,1.7726,4.56,1.93L1.5,2.5C1.2239,2.5,1,2.7239,1,3
	s0.2239,0.5,0.5,0.5l3.25-0.61C4.8213,2.9732,4.9057,3.0442,5,3.1v1.4H2c-0.5523,0-1,0.4477-1,1V9c0,0.5523,0.4477,1,1,1h7
	c0.5523,0,1-0.4477,1-1V5.5C10,4.9477,9.5523,4.5,9,4.5z M5,8.5H2.5v-3H5V8.5z M8.5,8.5H6v-3h2.5V8.5z"></path></svg>