<svg xmlns="http://www.w3.org/2000/svg" viewBox="0 0 21 21" height="21" width="21"><title>america_football_15.svg</title><rect fill="none" x="0" y="0" width="21" height="21"></rect><rect x="1" y="1" rx="9.5" ry="9.5" width="19" height="19" stroke="#bbb" style="stroke-linejoin:round;stroke-miterlimit:4;" fill="#bbb" stroke-width="2"></rect><rect x="1" y="1" width="19" height="19" rx="9.5" ry="9.5" fill="#fff"></rect><path fill="#76a723" transform="translate(3 3)" d="M7.53,3C3.09,3,1,7.5,1,7.5S3.09,12,7.53,12S14,7.5,14,7.5S12,3,7.53,3z M11,7v1.5C11,8.7761,10.7761,9,10.5,9
	S10,8.7761,10,8.5V8H8v0.5C8,8.7761,7.7761,9,7.5,9S7,8.7761,7,8.5V8H5v0.5C5,8.7761,4.7761,9,4.5,9S4,8.7761,4,8.5v-2
	C4,6.2239,4.2239,6,4.5,6S5,6.2239,5,6.5V7h2V6.5C7,6.2239,7.2239,6,7.5,6S8,6.2239,8,6.5V7h2V6.5C10,6.2239,10.2239,6,10.5,6
	S11,6.2239,11,6.5V7z"></path></svg>