<svg xmlns="http://www.w3.org/2000/svg" viewBox="0 0 17 17" height="17" width="17"><title>aquarium_11.svg</title><rect fill="none" x="0" y="0" width="17" height="17"></rect><rect x="1" y="1" rx="7.5" ry="7.5" width="15" height="15" stroke="#bbb" style="stroke-linejoin:round;stroke-miterlimit:4;" fill="#bbb" stroke-width="2"></rect><rect x="1" y="1" width="15" height="15" rx="7.5" ry="7.5" fill="#fff"></rect><path fill="#5d60be" transform="translate(3 3)" d="M8,1C7.1243,1,6.1491,1.092,4.9961,1.5273
	C3.8431,1.9622,2.8479,2.6569,2,3.5C1.1477,4.3474,0,6,0,6.5s1.1354,1.9426,2.6777,2.6211
	c1.5424,0.6784,2.3909,0.7983,3.2832,0.8945c0.7968,0.086,1.9424-0.027,2.8848-0.2324C9.5925,9.6205,10.9937,9.3099,11,9
	c0,0-2.7561-0.063-3-0.5c-0.2486-0.4448-0.2494-1.5858,0-2c0.258-0.4283,2.5,1,2.5,1c0.6439,0.2576,0.6439-4.2576,0-4
	c0,0-2.2768,1.4474-2.5,1C7.7506,4,7.7506,3,8,2.5C8.2232,2.0526,11,2,11,2C11,1.5,8.8757,1,8,1z M3.5137,4.502
	c0.5598,0.0001,1.0136,0.4539,1.0137,1.0137C4.5272,6.0754,4.0735,6.5292,3.5137,6.5293C2.9539,6.5292,2.5001,6.0754,2.5,5.5156
	C2.5001,4.9558,2.9539,4.5021,3.5137,4.502z"></path></svg>