<svg xmlns="http://www.w3.org/2000/svg" viewBox="0 0 17 17" height="17" width="17"><title>bakery_11.svg</title><rect fill="none" x="0" y="0" width="17" height="17"></rect><rect x="1" y="1" rx="7.5" ry="7.5" width="15" height="15" stroke="#bbb" style="stroke-linejoin:round;stroke-miterlimit:4;" fill="#bbb" stroke-width="2"></rect><rect x="1" y="1" width="15" height="15" rx="7.5" ry="7.5" fill="#fff"></rect><path fill="#d97200" transform="translate(3 3)" d="M4.5,2c-1,0-1,1-1,1L5,7.5
	C5,7.5,5,8,5.5,8S6,7.5,6,7.5L7.5,3c0,0,0-1-1-1H4.5z M9,3.5l-2,4h1.5l1,1H10c1,0,1-0.9,1-0.9V6.3L9,3.5z M0,6.3v1.2
	c0,0,0.0296,1.0097,1,1c0.9704-0.0097,0.5,0,0.5,0l1-1H4l-2-4L0,6.3z"></path></svg>