<svg xmlns="http://www.w3.org/2000/svg" viewBox="0 0 21 21" height="21" width="21"><title>baseball_15.svg</title><rect fill="none" x="0" y="0" width="21" height="21"></rect><rect x="1" y="1" rx="9.5" ry="9.5" width="19" height="19" stroke="#bbb" style="stroke-linejoin:round;stroke-miterlimit:4;" fill="#bbb" stroke-width="2"></rect><rect x="1" y="1" width="19" height="19" rx="9.5" ry="9.5" fill="#fff"></rect><path fill="#76a723" transform="translate(3 3)" d="M10,3.5C10,4.3284,9.3284,5,8.5,5S7,4.3284,7,3.5S7.6716,2,8.5,2S10,2.6716,10,3.5z M7,0.28C7,0.1254,6.8746,0,6.72,0
	c0,0,0,0,0,0C6.6221,0.0262,6.5348,0.0821,6.47,0.16L4,4.59C3.9941,4.6331,3.9941,4.6769,4,4.72C4,4.8746,4.1254,5,4.28,5
	c0.1015-0.0243,0.1926-0.0803,0.26-0.16L7,0.41C7.006,0.3669,7.006,0.3231,7,0.28z M12.9,14.2L12.9,14.2L10,6.39l0,0
	C9.9526,6.1627,9.7522,5.9999,9.52,6h-5c-0.2761,0-0.5,0.2239-0.5,0.5S4.2439,7,4.52,7H7l1.45,2.51l-4.27,4.61l0,0
	C4.0659,14.2132,3.9998,14.3527,4,14.5C4,14.7761,4.2239,15,4.5,15c0.1224-0.0006,0.2401-0.047,0.33-0.13l0,0l4.45-4.15l2.76,4l0,0
	c0.0895,0.1592,0.2574,0.2584,0.44,0.26c0.2796,0.0002,0.5092-0.2207,0.52-0.5C12.9958,14.3787,12.961,14.281,12.9,14.2z"></path></svg>