<svg xmlns="http://www.w3.org/2000/svg" viewBox="0 0 17 17" height="17" width="17"><title>basketball_11.svg</title><rect fill="none" x="0" y="0" width="17" height="17"></rect><rect x="1" y="1" rx="7.5" ry="7.5" width="15" height="15" stroke="#bbb" style="stroke-linejoin:round;stroke-miterlimit:4;" fill="#bbb" stroke-width="2"></rect><rect x="1" y="1" width="15" height="15" rx="7.5" ry="7.5" fill="#fff"></rect><path fill="#76a723" transform="translate(3 3)" d="M11,1c0,0.5523-0.4477,1-1,1S9,1.5523,9,1s0.4477-1,1-1S11,0.4477,11,1z M4.5,3C5.3284,3,6,2.3284,6,1.5S5.3284,0,4.5,0
	S3,0.6716,3,1.5S3.6716,3,4.5,3z M8.39,9.69L6,6.59V4.5h0.5c0.1669-0.0018,0.3214-0.0885,0.41-0.23l0,0l1.5-2l0,0
	C8.4661,2.1909,8.4974,2.0969,8.5,2C8.4962,1.7239,8.2692,1.5032,7.9931,1.507C7.8597,1.5088,7.7326,1.5639,7.64,1.66l0,0L6.25,3.5
	H2.5C2.3632,3.5018,2.233,3.5596,2.14,3.66l0,0l-2,2.54l0,0C0.0599,6.2807,0.0104,6.3868,0,6.5C0,6.7761,0.2239,7,0.5,7
	c0.1669-0.0018,0.3214-0.0885,0.41-0.23l0,0L2.74,4.5H3v2.09l-2.39,3.1l0,0C0.5387,9.7776,0.4999,9.8871,0.5,10
	c0,0.2761,0.2239,0.5,0.5,0.5c0.1669-0.0018,0.3214-0.0885,0.41-0.23l0,0L3.94,7h1.12l2.52,3.27l0,0
	C7.6705,10.4145,7.8295,10.5016,8,10.5c0.2761,0,0.5-0.2239,0.5-0.5C8.4979,9.8905,8.4592,9.7849,8.39,9.7l0,0V9.69z"></path></svg>