<svg xmlns="http://www.w3.org/2000/svg" viewBox="0 0 21 21" height="21" width="21"><title>basketball_15.svg</title><rect fill="none" x="0" y="0" width="21" height="21"></rect><rect x="1" y="1" rx="9.5" ry="9.5" width="19" height="19" stroke="#bbb" style="stroke-linejoin:round;stroke-miterlimit:4;" fill="#bbb" stroke-width="2"></rect><rect x="1" y="1" width="19" height="19" rx="9.5" ry="9.5" fill="#fff"></rect><path fill="#76a723" transform="translate(3 3)" d="M9,3.5C9,4.3284,8.3284,5,7.5,5S6,4.3284,6,3.5S6.6716,2,7.5,2S9,2.6716,9,3.5z M14,1c-0.5523,0-1,0.4477-1,1s0.4477,1,1,1
	s1-0.4477,1-1S14.5523,1,14,1z M11.89,13.19L9,9.58V6.5h0.5c0.1669-0.0018,0.3214-0.0885,0.41-0.23l0,0l1.94-2.42l0,0l0.06-0.08l0,0
	C11.9661,3.6909,11.9974,3.5969,12,3.5c-0.0038-0.2761-0.2308-0.4968-0.5069-0.493C11.3597,3.0088,11.2326,3.0639,11.14,3.16l0,0
	L9.26,5.5H5.5C5.3632,5.5018,5.233,5.5596,5.14,5.66l0,0l-2,2.54l0,0C3.0599,8.2807,3.0104,8.3868,3,8.5C3,8.7761,3.2239,9,3.5,9
	c0.1669-0.0018,0.3214-0.0885,0.41-0.23l0,0L5.74,6.5H6v3.08l-2.89,3.61l0,0c-0.0692,0.0849-0.1079,0.1905-0.11,0.3
	c0,0.2761,0.2239,0.5,0.5,0.5c0.1669-0.0018,0.3214-0.0885,0.41-0.23l0,0l3-3.77h1.15l3,3.77l0,0
	c0.0886,0.1415,0.2431,0.2282,0.41,0.23c0.2761,0,0.5-0.2239,0.5-0.5c-0.0021-0.1095-0.0408-0.2151-0.11-0.3l0,0H11.89z"></path></svg>