<svg xmlns="http://www.w3.org/2000/svg" viewBox="0 0 17 17" height="17" width="17"><title>bicycle_rental_11.svg</title><rect fill="none" x="0" y="0" width="17" height="17"></rect><rect x="1" y="1" rx="7.5" ry="7.5" width="15" height="15" stroke="#bbb" style="stroke-linejoin:round;stroke-miterlimit:4;" fill="#bbb" stroke-width="2"></rect><rect x="1" y="1" width="15" height="15" rx="7.5" ry="7.5" fill="#fff"></rect><path fill="#5d60be" transform="translate(3 3)" d="M8,0.0004c-0.5523,0-1,0.4477-1,1s0.4477,1,1,1s1-0.4477,1-1
	S8.5523,0.0004,8,0.0004z M6.0137,2.0004C5.8763,1.9967,5.7436,2.0497,5.6465,2.1468l-2,2c-0.1952,0.1953-0.1952,0.5118,0,0.707
	L5,6.2074v2.293C4.9961,8.7765,5.2168,9.0035,5.4929,9.0074C5.7691,9.0114,5.9961,8.7907,6,8.5145
	c0.0001-0.0047,0.0001-0.0094,0-0.0141v-2.5c0.0005-0.1323-0.0515-0.2594-0.1445-0.3535l-0.752-0.752l1.166-1.2031l0.832,1.1094
	C7.1958,4.9263,7.3433,5.0001,7.5,5.0004h2c0.2762,0.0039,0.5032-0.2168,0.5071-0.4929c0.0039-0.2761-0.2168-0.5032-0.493-0.5071
	c-0.0047-0.0001-0.0094-0.0001-0.0141,0H7.75L6.4004,2.1996C6.3086,2.0777,6.1662,2.0043,6.0137,2.0004z M2.3633,6.0043
	C2.113,6.0182,1.8615,6.0708,1.6191,6.1625C0.6498,6.5293,0.0049,7.46,0.0039,8.4965s0.6411,1.9703,1.6094,2.3398
	s2.0683,0.1,2.7578-0.6738c0.1831-0.2068,0.164-0.5229-0.0428-0.706C4.1219,9.2736,3.8064,9.2924,3.623,9.4984
	c-0.4154,0.4663-1.0709,0.627-1.6543,0.4043C1.3853,9.68,1.003,9.1229,1.0039,8.4984S1.3886,7.319,1.9727,7.098
	c0.584-0.221,1.2402-0.0592,1.6543,0.4082C3.8101,7.713,4.1262,7.7322,4.3329,7.549c0.2068-0.1831,0.226-0.4992,0.0428-0.706
	C4.3755,6.8427,4.3752,6.8425,4.375,6.8422C4.0314,6.4543,3.5855,6.1936,3.1035,6.0746C2.8625,6.0151,2.6136,5.9904,2.3633,6.0043
	L2.3633,6.0043z M8.6426,6.0043C8.3923,5.9904,8.1433,6.0151,7.9023,6.0746c-0.482,0.119-0.9298,0.3797-1.2734,0.7676
	c-0.1834,0.2071-0.1641,0.5237,0.043,0.707s0.5237,0.1641,0.707-0.043C7.793,7.0388,8.4472,6.877,9.0312,7.098
	C9.6153,7.319,9.9991,7.8739,10,8.4984S9.6186,9.68,9.0352,9.9027c-0.5834,0.2227-1.2389,0.062-1.6543-0.4043
	c-0.1729-0.2153-0.4877-0.2497-0.703-0.0768s-0.2497,0.4877-0.0768,0.703c0.0106,0.0132,0.0218,0.0258,0.0337,0.0378
	c0.6895,0.7739,1.7895,1.0434,2.7578,0.6738C10.3609,10.4667,11.0015,9.5329,11,8.4964c-0.001-1.0365-0.6439-1.9671-1.6133-2.334
	C9.1444,6.0708,8.8928,6.0182,8.6426,6.0043L8.6426,6.0043z"></path></svg>