<svg xmlns="http://www.w3.org/2000/svg" viewBox="0 0 17 17" height="17" width="17"><title>bicycle_11.svg</title><rect fill="none" x="0" y="0" width="17" height="17"></rect><rect x="1" y="1" rx="7.5" ry="7.5" width="15" height="15" stroke="#bbb" style="stroke-linejoin:round;stroke-miterlimit:4;" fill="#bbb" stroke-width="2"></rect><rect x="1" y="1" width="15" height="15" rx="7.5" ry="7.5" fill="#fff"></rect><path fill="#5d60be" transform="translate(3 3)" d="
	M6.5,1.5c-0.6761-0.01-0.6761,1.0096,0,1H7V3.211L4.252,4.7813L3.7383,3.5h0.7148c0.6761,0.01,0.6761-1.0096,0-1H2.4258
	c-0.6761-0.01-0.6761,1.0096,0,1h0.2344l0.4316,1.0781C2.9011,4.5311,2.7047,4.5001,2.5,4.5001c-1.3748,0-2.5,1.1252-2.5,2.5
	s1.1252,2.5,2.5,2.5S5,8.3748,5,7.0001c0-0.4713-0.1399-0.9078-0.3691-1.2852l2.4707-1.4121L7.5039,4.711
	C6.6216,5.0981,6,5.9792,6,7.0001c0,1.3748,1.1252,2.5,2.5,2.5s2.5-1.1252,2.5-2.5c0-1.2959-1.0034-2.3575-2.2695-2.4766L8,3.793V2
	c0-0.2761-0.2239-0.5-0.5-0.5H6.5z M2.5,5.5C3.3344,5.5,4,6.1657,4,7S3.3344,8.5,2.5,8.5S1,7.8344,1,7S1.6656,5.5,2.5,5.5z
	 M8.4551,5.504h0.002c0.0299,0.003,0.06,0.003,0.0898,0C9.3587,5.5289,10,6.1818,10,7.0001c0,0.8344-0.6656,1.5-1.5,1.5
	S7,7.8345,7,7.0001C7,6.1811,7.6424,5.5279,8.4551,5.504L8.4551,5.504z"></path></svg>