<svg xmlns="http://www.w3.org/2000/svg" viewBox="0 0 16 16" height="16" width="16"><title>college_11.svg</title><rect fill="none" x="0" y="0" width="16" height="16"></rect><rect x="0" y="0" rx="7.5" ry="7.5" width="15" height="15" stroke="#bbb" style="stroke-linejoin:round;stroke-miterlimit:4;" fill="#bbb" stroke-width="1"></rect><rect x="0" y="0" width="15" height="15" rx="7.5" ry="7.5" fill="#fff"></rect><path fill="#725a50" transform="translate(2 2)" d="M2,7.3c0.3-0.2,0.5-0.5,0.5-0.8c0-0.4-0.2-0.7-0.6-0.9V4.4L5.5,6L11,3.5L5.5,1L0,3.5L1.2,4v1.6
		C0.8,5.8,0.6,6.1,0.6,6.5c0,0.3,0.2,0.6,0.5,0.8L0.6,9c-0.3,1,0.5,1,0.5,1h1c0,0,0.8,0,0.5-1L2,7.3z"></path><path fill="#725a50" transform="translate(2 2)" d="M3.5,6.2c0,0.1,0,0.2,0,0.3c0,0.4-0.2,0.8-0.4,1.1C3.3,8,3.5,8.4,3.5,9v0.6C4,9.8,4.7,10,5.5,10
		C8,10,9,8.5,9,8.5v-3L5.5,7.1L3.5,6.2z"></path></svg>