<svg xmlns="http://www.w3.org/2000/svg" viewBox="0 0 17 17" height="17" width="17"><title>dog_park_11.svg</title><rect fill="none" x="0" y="0" width="17" height="17"></rect><rect x="1" y="1" rx="7.5" ry="7.5" width="15" height="15" stroke="#bbb" style="stroke-linejoin:round;stroke-miterlimit:4;" fill="#bbb" stroke-width="2"></rect><rect x="1" y="1" width="15" height="15" rx="7.5" ry="7.5" fill="#fff"></rect><path fill="#5d60be" transform="translate(3 3)" d="M7.5,1
	c0,0-0.3457,0.0371-0.5,0.5l-0.5,2l2,1.5H10c1,0,1-1,1-1L9.5,2.5C9,2,8.5,2,8,2V1.5C8,1.5,8,1,7.5,1z M2.5,2
	c0,0-0.3534-0.0069-0.7227,0.1777S1,2.8333,1,3.5v0.9648C0.9996,4.4766,0.9996,4.4883,1,4.5V5v0.5C1,6.5,1,7,0.5,7C0.5,7,0,7,0,7.5
	v2c0,0,0,0.5,0.5,0.5S1,9.5,1,9.5V8c0.3537,0,0.6906-0.1371,1-0.2988V9.5c0,0,0,0.5,0.5,0.5S3,9.5,3,9.5V7h3l0.6641,1.9922
	C7,9.9999,7.5,10,7.5,10H8c0,0,0.5,0,0.5-0.5S8,9,8,9V6.5C8,5.6094,7.3678,5.2449,7,5L5.498,4H2V3.5
	c0-0.3333,0.0919-0.3624,0.2227-0.4277C2.3534,3.0069,2.5,3,2.5,3C3.1762,3.0096,3.1762,1.9904,2.5,2z"></path></svg>