<svg xmlns="http://www.w3.org/2000/svg" viewBox="0 0 21 21" height="21" width="21"><title>drinking_water_15.svg</title><rect fill="none" x="0" y="0" width="21" height="21"></rect><rect x="1" y="1" rx="9.5" ry="9.5" width="19" height="19" stroke="#bbb" style="stroke-linejoin:round;stroke-miterlimit:4;" fill="#bbb" stroke-width="2"></rect><rect x="1" y="1" width="19" height="19" rx="9.5" ry="9.5" fill="#fff"></rect><path fill="#725a50" transform="translate(3 3)" d="M5,1h9v3H6.5C6.2239,4,6,4.2239,6,4.5V7H3V3C3,1.8954,3.8954,1,5,1z M5.9,11.94L5.9,11.94L5.9,11.94L5.9,11.94L4.5,9
	l-1.39,2.93C3.0535,12.1156,3.0166,12.3067,3,12.5c-0.0021,0.8284,0.6678,1.5017,1.4962,1.5038
	C5.3246,14.0059,5.9979,13.3361,6,12.5076c0.0005-0.1946-0.0369-0.3873-0.11-0.5676H5.9z"></path></svg>