<svg xmlns="http://www.w3.org/2000/svg" viewBox="0 0 17 17" height="17" width="17"><title>drinking-water_11.svg</title><rect fill="none" x="0" y="0" width="17" height="17"></rect><rect x="1" y="1" rx="7.5" ry="7.5" width="15" height="15" stroke="#bbb" style="stroke-linejoin:round;stroke-miterlimit:4;" fill="#bbb" stroke-width="2"></rect><rect x="1" y="1" width="15" height="15" rx="7.5" ry="7.5" fill="#fff"></rect><path fill="#725a50" transform="translate(3 3)" d="M10,3H5C4.7239,3,4.5,3.2239,4.5,3.5V5h-2V2.51C2.4945,1.6816,3.1616,1.0056,3.99,1C3.9933,1,3.9967,1,4,1h6V3z M4.38,8.56
	L4.38,8.56L3.49,7L2.6,8.55l0,0C2.5286,8.6893,2.4909,8.8435,2.49,9c0.0003,0.5523,0.4482,0.9998,1.0005,0.9995
	C4.0424,9.9992,4.4897,9.5519,4.49,9C4.4875,8.8468,4.4499,8.6963,4.38,8.56z"></path></svg>