<svg xmlns="http://www.w3.org/2000/svg" viewBox="0 0 17 17" height="17" width="17"><title>embassy-11.svg</title><rect fill="none" x="0" y="0" width="17" height="17"></rect><path fill="rgba(255,255,255,0.25)" transform="translate(3 3)" d="M5.5,2C4.6014,2.0766,3.7537,2.4494,3.09,3.06C3.0316,3.1262,2.9995,3.2117,3,3.3v3.32
	C2.9889,6.8074,3.1318,6.9684,3.3193,6.9796C3.4115,6.985,3.5021,6.9527,3.57,6.89C4.1239,6.4637,4.8011,6.2286,5.5,6.22
	C6.61,6.22,6.85,7,8,7c0.6869-0.0671,1.3313-0.3629,1.83-0.84C9.9401,6.0917,10.0051,5.9695,10,5.84V2.37
	c0.0309-0.1908-0.0987-0.3705-0.2896-0.4014C9.6387,1.9569,9.5652,1.9679,9.5,2C9.0686,2.3529,8.5507,2.5842,8,2.67
	C6.85,2.67,6.65,2,5.5,2z M1.5,1.5c0.5523,0,1,0.4477,1,1s-0.4477,1-1,1s-1-0.4477-1-1S0.9477,1.5,1.5,1.5z M2,4.5v6
	C2,10.7761,1.7761,11,1.5,11S1,10.7761,1,10.5v-6C1,4.2239,1.2239,4,1.5,4S2,4.2239,2,4.5z" style="stroke-linejoin:round;stroke-miterlimit:4px;" stroke="rgba(255,255,255,0.25)" stroke-width="2"></path><path fill="#444444" transform="translate(3 3)" d="M5.5,2C4.6014,2.0766,3.7537,2.4494,3.09,3.06C3.0316,3.1262,2.9995,3.2117,3,3.3v3.32
	C2.9889,6.8074,3.1318,6.9684,3.3193,6.9796C3.4115,6.985,3.5021,6.9527,3.57,6.89C4.1239,6.4637,4.8011,6.2286,5.5,6.22
	C6.61,6.22,6.85,7,8,7c0.6869-0.0671,1.3313-0.3629,1.83-0.84C9.9401,6.0917,10.0051,5.9695,10,5.84V2.37
	c0.0309-0.1908-0.0987-0.3705-0.2896-0.4014C9.6387,1.9569,9.5652,1.9679,9.5,2C9.0686,2.3529,8.5507,2.5842,8,2.67
	C6.85,2.67,6.65,2,5.5,2z M1.5,1.5c0.5523,0,1,0.4477,1,1s-0.4477,1-1,1s-1-0.4477-1-1S0.9477,1.5,1.5,1.5z M2,4.5v6
	C2,10.7761,1.7761,11,1.5,11S1,10.7761,1,10.5v-6C1,4.2239,1.2239,4,1.5,4S2,4.2239,2,4.5z"></path></svg>