<svg xmlns="http://www.w3.org/2000/svg" viewBox="0 0 21 21" height="21" width="21"><title>embassy_15.svg</title><rect fill="none" x="0" y="0" width="21" height="21"></rect><rect x="1" y="1" rx="9.5" ry="9.5" width="19" height="19" stroke="#bbb" style="stroke-linejoin:round;stroke-miterlimit:4;" fill="#bbb" stroke-width="2"></rect><rect x="1" y="1" width="19" height="19" rx="9.5" ry="9.5" fill="#fff"></rect><path fill="#725a50" transform="translate(3 3)" d="M6.65,2C5.43,2,4.48,3.38,4.11,3.82C4.0365,3.9102,3.9975,4.0237,4,4.14v4.4C3.9884,8.7827,4.1758,8.9889,4.4185,9.0005
	C4.528,9.0057,4.6355,8.9699,4.72,8.9c0.4665-0.6264,1.1589-1.0461,1.93-1.17C8.06,7.73,8.6,9,10.07,9
	c0.9948-0.0976,1.9415-0.4756,2.73-1.09c0.1272-0.0934,0.2016-0.2422,0.2-0.4V2.45c0.0275-0.2414-0.1459-0.4595-0.3874-0.487
	C12.5332,1.954,12.4527,1.9668,12.38,2c-0.6813,0.5212-1.4706,0.8834-2.31,1.06C8.6,3.08,8.12,2,6.65,2z M2.5,3
	c-0.5523,0-1-0.4477-1-1s0.4477-1,1-1s1,0.4477,1,1S3.0523,3,2.5,3z M3,4v9.48c0,0.2761-0.2239,0.5-0.5,0.5S2,13.7561,2,13.48V4
	c0-0.2761,0.2239-0.5,0.5-0.5S3,3.7239,3,4z"></path></svg>