<svg xmlns="http://www.w3.org/2000/svg" viewBox="0 0 19 19" height="19" width="19"><title>entrance_15.svg</title><rect fill="none" x="0" y="0" width="19" height="19"></rect><rect x="0" y="0" width="19" height="19" rx="0" ry="0" fill="#4898ff"></rect><path fill="#fff" transform="translate(2 2)" d="M7,6.5v-1c0-0.5523-0.4477-1-1-1s-1,0.4477-1,1v3L7,6.5z M4.65,10.56L5,3c0-0.5523,0.4477-1,1-1s1,0.4477,1,1S6.5523,4,6,4
	S5,3.5523,5,3L4.65,10.56z"></path><path fill="#fff" transform="translate(2 2)" d="M14,6L14,6c0,0.5523-0.4477,1-1,1h-1.58c-0.2658-0.0015-0.5213,0.1028-0.71,0.29l-5.42,5.42
	c-0.1863,0.1847-0.4377,0.2889-0.7,0.29H2c-0.5523,0-1-0.4477-1-1l0,0c0-0.5523,0.4477-1,1-1h1.59
	c0.2623-0.0011,0.5137-0.1053,0.7-0.29l5.42-5.42C9.8987,5.1028,10.1542,4.9985,10.42,5H13C13.5523,5,14,5.4477,14,6z"></path></svg>