<svg xmlns="http://www.w3.org/2000/svg" viewBox="0 0 15 15" height="15" width="15"><title>entrance_11.svg</title><rect fill="none" x="0" y="0" width="15" height="15"></rect><rect x="0" y="0" width="15" height="15" rx="0" ry="0" fill="#4898ff"></rect><path fill="#fff" transform="translate(2 2)" d="M4,2.25C4,1.8358,4.3358,1.5,4.75,1.5S5.5,1.8358,5.5,2.25S5.1642,3,4.75,3S4,2.6642,4,2.25z M9.27,4H7.88
	C7.6856,3.998,7.4985,4.0736,7.36,4.21l-4,4C3.224,8.344,3.0409,8.4194,2.85,8.42H1.73C1.3268,8.42,1,8.7468,1,9.15l0,0
	c0,0.4032,0.3268,0.73,0.73,0.73h1.89c0.1909-0.0006,0.374-0.076,0.51-0.21l4-4C8.2644,5.5576,8.4348,5.4972,8.61,5.5h0.66
	C9.6732,5.5,10,5.1732,10,4.77l0,0c0.0221-0.4026-0.2863-0.7468-0.6889-0.7689C9.2974,4.0003,9.2837,4,9.27,4z M4.75,3.5
	C4.3358,3.5,4,3.8358,4,4.25V6l1.5-1.5V4.25C5.5,3.8358,5.1642,3.5,4.75,3.5z"></path></svg>