<svg xmlns="http://www.w3.org/2000/svg" viewBox="0 0 17 17" height="17" width="17"><title>grocery_11.svg</title><rect fill="none" x="0" y="0" width="17" height="17"></rect><rect x="1" y="1" rx="7.5" ry="7.5" width="15" height="15" stroke="#bbb" style="stroke-linejoin:round;stroke-miterlimit:4;" fill="#bbb" stroke-width="2"></rect><rect x="1" y="1" width="15" height="15" rx="7.5" ry="7.5" fill="#fff"></rect><path fill="#5d60be" transform="translate(3 3)" d="M9.75,1.5C9.7464,1.4999,9.4324,1.4942,9.1191,1.6875C8.8041,1.8819,8.5,2.3013,8.5,3H8.2539H1l0.75,3.5
	C1.8571,7,2.5,7,2.5,7h6c0,0-0.0027,0.2466-0.1523,0.4961S7.9306,8,7.25,8H2C1.6619,7.9952,1.6619,8.5048,2,8.5h1.25h4
	c0.8194,0,1.302-0.3705,1.5273-0.7461C9.0027,7.3784,9,7,9,7V3c0-0.567,0.1959-0.7725,0.3809-0.8867
	C9.5659,1.9991,9.7461,2,9.7461,2C9.7474,2,9.7487,2,9.75,2h0.5c0.3381,0.0048,0.3381-0.5048,0-0.5H9.7539H9.75z M7.25,8.5
	C6.8358,8.5,6.5,8.8358,6.5,9.25S6.8358,10,7.25,10S8,9.6642,8,9.25S7.6642,8.5,7.25,8.5z M3.25,8.5C2.8358,8.5,2.5,8.8358,2.5,9.25
	S2.8358,10,3.25,10S4,9.6642,4,9.25S3.6642,8.5,3.25,8.5z"></path></svg>