<svg xmlns="http://www.w3.org/2000/svg" viewBox="0 0 17 17" height="17" width="17"><title>heliport-11.svg</title><rect fill="none" x="0" y="0" width="17" height="17"></rect><path fill="rgba(255,255,255,0.25)" transform="translate(3 3)" d="M3,1
	C2.723,1,2.5,1.223,2.5,1.5S2.7236,1.9824,3,2h3v2H2.9141h-0.002C2.7004,3.4014,2.1349,3.0009,1.5,3C0.6716,3,0,3.6716,0,4.5
	S0.6716,6,1.5,6c0.3794-0.0007,0.7444-0.1452,1.0215-0.4043L4.5,8.5c0.6812,1,1.5,1,2,1h3.5352c0,0,0.9648-0.0008,0.9648-1v-1
	c0-0.5-0.5-1-0.5-1l-2-2c0,0-0.5-0.5-1-0.5H7V2h3c0.277,0,0.5-0.223,0.5-0.5S10.277,1,10,1H3z M1.5,4C1.7761,4,2,4.2239,2,4.5
	S1.7761,5,1.5,5S1,4.7761,1,4.5S1.2239,4,1.5,4z M7.75,5C7.75,5,8,5,8.5,5.5L10,7H7.5C7.5,7,7,7,7,6.5v-1C7,5.5,7,5,7.5,5H7.75z" style="stroke-linejoin:round;stroke-miterlimit:4px;" stroke="rgba(255,255,255,0.25)" stroke-width="2"></path><path fill="#444444" transform="translate(3 3)" d="M3,1
	C2.723,1,2.5,1.223,2.5,1.5S2.7236,1.9824,3,2h3v2H2.9141h-0.002C2.7004,3.4014,2.1349,3.0009,1.5,3C0.6716,3,0,3.6716,0,4.5
	S0.6716,6,1.5,6c0.3794-0.0007,0.7444-0.1452,1.0215-0.4043L4.5,8.5c0.6812,1,1.5,1,2,1h3.5352c0,0,0.9648-0.0008,0.9648-1v-1
	c0-0.5-0.5-1-0.5-1l-2-2c0,0-0.5-0.5-1-0.5H7V2h3c0.277,0,0.5-0.223,0.5-0.5S10.277,1,10,1H3z M1.5,4C1.7761,4,2,4.2239,2,4.5
	S1.7761,5,1.5,5S1,4.7761,1,4.5S1.2239,4,1.5,4z M7.75,5C7.75,5,8,5,8.5,5.5L10,7H7.5C7.5,7,7,7,7,6.5v-1C7,5.5,7,5,7.5,5H7.75z"></path></svg>