<svg xmlns="http://www.w3.org/2000/svg" viewBox="0 0 17 17" height="17" width="17"><title>hospital_11.svg</title><rect fill="none" x="0" y="0" width="17" height="17"></rect><rect x="1" y="1" rx="7.5" ry="7.5" width="15" height="15" stroke="#bbb" style="stroke-linejoin:round;stroke-miterlimit:4;" fill="#bbb" stroke-width="2"></rect><rect x="1" y="1" width="15" height="15" rx="7.5" ry="7.5" fill="#fff"></rect><path fill="#ba3827" transform="translate(3 3)" d="M10,4H7V1C6.9616,0.4644,6.5356,0.0384,6,0H5C4.4644,0.0384,4.0384,0.4644,4,1v3H1C0.4644,4.0384,0.0384,4.4644,0,5v1
	c0.0384,0.5356,0.4644,0.9616,1,1h3v3c0.0384,0.5356,0.4644,0.9616,1,1h1c0.5356-0.0384,0.9616-0.4644,1-1V7h3
	c0.5356-0.0384,0.9616-0.4644,1-1V5C11,4.4477,10.5523,4,10,4z"></path></svg>