<svg xmlns="http://www.w3.org/2000/svg" viewBox="0 0 17 17" height="17" width="17"><title>lighthouse_11.svg</title><rect fill="none" x="0" y="0" width="17" height="17"></rect><rect x="1" y="1" rx="7.5" ry="7.5" width="15" height="15" stroke="#bbb" style="stroke-linejoin:round;stroke-miterlimit:4;" fill="#bbb" stroke-width="2"></rect><rect x="1" y="1" width="15" height="15" rx="7.5" ry="7.5" fill="#fff"></rect><path fill="#725a50" transform="translate(3 3)" d="M7,6l1,5H3l1-5h1.2V2H4.28C4.1042,1.9823,3.9759,1.8255,3.9936,1.6496C4.0042,1.544,4.0665,1.4504,4.16,1.4L5.38,1
	c0.0762-0.0347,0.1638-0.0347,0.24,0l1.22,0.4c0.1555,0.0839,0.2136,0.2781,0.1296,0.4336C6.9192,1.927,6.8257,1.9894,6.72,2H5.81v4
	H7z M8,3v0.5L11,3V2.5L8,3z M8,5.5L11,6V5.5L8,5V5.5z M3,3L0,2.5V3l3,0.5V3z M3,5L0,5.5V6l3-0.5V5z"></path></svg>