<svg xmlns="http://www.w3.org/2000/svg" viewBox="0 0 17 17" height="17" width="17"><title>lodging_11.svg</title><rect fill="none" x="0" y="0" width="17" height="17"></rect><rect x="1" y="1" rx="7.5" ry="7.5" width="15" height="15" stroke="#bbb" style="stroke-linejoin:round;stroke-miterlimit:4;" fill="#bbb" stroke-width="2"></rect><rect x="1" y="1" width="15" height="15" rx="7.5" ry="7.5" fill="#fff"></rect><path fill="#725a50" transform="translate(3 3)" d="M1.5,2C1.2239,2,1,2.2239,1,2.5v6C1,8.7761,1.2239,9,1.5,9S2,8.7761,2,8.5V8h7v0.5C9,8.7761,9.2239,9,9.5,9
	S10,8.7761,10,8.5v-1C10,7.2239,9.7761,7,9.5,7H2V2.5C2,2.2239,1.7761,2,1.5,2z M3.5,2c-0.5523,0-1,0.4477-1,1s0.4477,1,1,1
	s1-0.4477,1-1S4.0523,2,3.5,2z M6,3C5.4477,3,5,3.4477,5,4v1H3C2.7239,5,2.5,5.2239,2.5,5.5S2.7239,6,3,6h7V5c0-1.1046-0.8954-2-2-2
	H6z"></path></svg>