<svg xmlns="http://www.w3.org/2000/svg" viewBox="0 0 17 17" height="17" width="17"><title>mountain_11.svg</title><rect fill="none" x="0" y="0" width="17" height="17"></rect><rect x="1" y="1" rx="7.5" ry="7.5" width="15" height="15" stroke="#bbb" style="stroke-linejoin:round;stroke-miterlimit:4;" fill="#bbb" stroke-width="2"></rect><rect x="1" y="1" width="15" height="15" rx="7.5" ry="7.5" fill="#fff"></rect><path fill="#76a723" transform="translate(3 3)" d="M5.5176,1.2324C5.3165,1.2262,5.1271,1.328,5.0234,1.5l-4,6.6602
	C0.8007,8.5296,1.0679,8.9999,1.5,9h8c0.4321-0.0001,0.6993-0.4704,0.4766-0.8398l-4-6.6602
	C5.8793,1.3386,5.7062,1.2384,5.5176,1.2324z M5.5195,2.1543L8.4316,7H7.7598L6.416,5.7734L5.5195,7L4.625,5.7734L3.2812,7H2.6094
	C2.6094,7,5.5195,2.1543,5.5195,2.1543z"></path></svg>