<svg xmlns="http://www.w3.org/2000/svg" viewBox="0 0 16 16" height="16" width="16"><title>museum_11.svg</title><rect fill="none" x="0" y="0" width="16" height="16"></rect><rect x="0" y="0" rx="7.5" ry="7.5" width="15" height="15" stroke="#bbb" style="stroke-linejoin:round;stroke-miterlimit:4;" fill="#bbb" stroke-width="1"></rect><rect x="0" y="0" width="15" height="15" rx="7.5" ry="7.5" fill="#fff"></rect><path fill="#725a50" transform="translate(2 2)" d="M5.5,0L1,2v1h9V2L5.5,0z M2,4v4L1,9v1h9V9L9,8V4H2z M3.49,5c0.1354-0.0008,0.2653,0.0533,0.36,0.15L5.5,6.79l1.65-1.64
	c0.1972-0.1933,0.5137-0.1902,0.7071,0.007C7.947,5.2487,7.9982,5.3715,8,5.5v3C8,8.7761,7.7761,9,7.5,9S7,8.7761,7,8.5l0,0V6.71
	L5.85,7.85C5.6555,8.0461,5.339,8.0474,5.1429,7.8529C5.1419,7.8519,5.141,7.851,5.14,7.85L4,6.71V8.5C4,8.7761,3.7761,9,3.5,9
	S3,8.7761,3,8.5l0,0v-3C2.9999,5.2277,3.2178,5.0054,3.49,5z"></path></svg>