<svg xmlns="http://www.w3.org/2000/svg" viewBox="0 0 20 20" height="20" width="20"><title>museum_15.svg</title><rect fill="none" x="0" y="0" width="20" height="20"></rect><rect x="0" y="0" rx="9.5" ry="9.5" width="19" height="19" stroke="#bbb" style="stroke-linejoin:round;stroke-miterlimit:4;" fill="#bbb" stroke-width="1"></rect><rect x="0" y="0" width="19" height="19" rx="9.5" ry="9.5" fill="#fff"></rect><path fill="#725a50" transform="translate(2 2)" d="M7.5,0L1,3.4453V4h13V3.4453L7.5,0z M2,5v5l-1,1.5547V13h13v-1.4453L13,10
	V5H2z M4.6152,6c0.169-0.0023,0.3318,0.0639,0.4512,0.1836L7.5,8.6172l2.4336-2.4336c0.2445-0.2437,0.6402-0.2432,0.884,0.0013
	C10.9341,6.3017,10.9997,6.46,11,6.625v4.2422c0.0049,0.3452-0.271,0.629-0.6162,0.6338c-0.3452,0.0049-0.629-0.271-0.6338-0.6162
	c-0.0001-0.0059-0.0001-0.0118,0-0.0177V8.1328L7.9414,9.9414c-0.244,0.2433-0.6388,0.2433-0.8828,0L5.25,8.1328v2.7344
	c0.0049,0.3452-0.271,0.629-0.6162,0.6338C4.2887,11.5059,4.0049,11.2301,4,10.8849c-0.0001-0.0059-0.0001-0.0118,0-0.0177V6.625
	C4,6.2836,4.2739,6.0054,4.6152,6z"></path></svg>