<svg xmlns="http://www.w3.org/2000/svg" viewBox="0 0 15 15" height="15" width="15"><title>parking_11.svg</title><rect fill="none" x="0" y="0" width="15" height="15"></rect><rect x="0" y="0" width="15" height="15" rx="0" ry="0" fill="#4898ff"></rect><path fill="#fff" transform="translate(2 2)" d="M8.1,6.1C7.4363,6.5788,6.6268,6.8121,5.81,6.76H3.9V10H2V1h3.93c0.7801-0.0414,1.5484,0.2041,2.16,0.69
	C8.6707,2.2518,8.9681,3.0449,8.9,3.85C8.9884,4.6825,8.6941,5.5101,8.1,6.1z M6.64,2.86c-0.289-0.2119-0.6421-0.3178-1-0.3H3.9
	v2.65h1.72c0.3612,0.0191,0.717-0.0947,1-0.32c0.2559-0.2675,0.3867-0.6308,0.36-1C7.0323,3.5125,6.9068,3.1321,6.64,2.86z"></path></svg>