<svg xmlns="http://www.w3.org/2000/svg" viewBox="0 0 17 17" height="17" width="17"><title>picnic_site_11.svg</title><rect fill="none" x="0" y="0" width="17" height="17"></rect><rect x="1" y="1" rx="7.5" ry="7.5" width="15" height="15" stroke="#bbb" style="stroke-linejoin:round;stroke-miterlimit:4;" fill="#bbb" stroke-width="2"></rect><rect x="1" y="1" width="15" height="15" rx="7.5" ry="7.5" fill="#fff"></rect><path fill="#76a723" transform="translate(3 3)" d="M2.75,2C2.3345,2,2,2.3345,2,2.75S2.3345,3.5,2.75,3.5H4L3.5391,5H1.75C1.3345,5,1,5.3345,1,5.75
	S1.3345,6.5,1.75,6.5h1.3262L2,10h1l1.0762-3.5h2.8477L8,10h1L7.9238,6.5H9.25C9.6655,6.5,10,6.1655,10,5.75S9.6655,5,9.25,5H7.4609
	L7,3.5h1.25C8.6655,3.5,9,3.1655,9,2.75S8.6655,2,8.25,2H2.75z M5,3.5h1L6.4609,5H4.5391L5,3.5z"></path></svg>