<svg xmlns="http://www.w3.org/2000/svg" viewBox="0 0 21 21" height="21" width="21"><title>place_of_worship_15.svg</title><rect fill="none" x="0" y="0" width="21" height="21"></rect><rect x="1" y="1" rx="9.5" ry="9.5" width="19" height="19" stroke="#bbb" style="stroke-linejoin:round;stroke-miterlimit:4;" fill="#bbb" stroke-width="2"></rect><rect x="1" y="1" width="19" height="19" rx="9.5" ry="9.5" fill="#fff"></rect><path fill="#725a50" transform="translate(3 3)" d="M7.5,0l-2,2v2h4V2
	L7.5,0z M5.5,4.5L4,6h7L9.5,4.5H5.5z M2,6.5c-0.5523,0-1,0.4477-1,1V13h2V7.5C3,6.9477,2.5523,6.5,2,6.5z M4,6.5V13h7V6.5H4z
	 M13,6.5c-0.5523,0-1,0.4477-1,1V13h2V7.5C14,6.9477,13.5523,6.5,13,6.5z"></path></svg>