<svg xmlns="http://www.w3.org/2000/svg" viewBox="0 0 17 17" height="17" width="17"><title>police_11.svg</title><rect fill="none" x="0" y="0" width="17" height="17"></rect><rect x="1" y="1" rx="7.5" ry="7.5" width="15" height="15" stroke="#bbb" style="stroke-linejoin:round;stroke-miterlimit:4;" fill="#bbb" stroke-width="2"></rect><rect x="1" y="1" width="15" height="15" rx="7.5" ry="7.5" fill="#fff"></rect><path fill="#725a50" transform="translate(3 3)" d="M4.5,0.5l0.5,1h3
	l0.5-1H4.5z M5,2v1c0,0.8284,0.6716,1.5,1.5,1.5S8,3.8284,8,3V2H5z M1.75,3C1,3,1,3.75,1,3.75v3
	c0.0006,0.506,0.4918,0.8663,0.9746,0.7148L4,6.8262V10l4-5H5c0,0-0.1945,0-0.4238,0.0723L2.5,5.7266V3.75C2.5,3.75,2.5,3,1.75,3z
	 M8.7715,5.3887L5,10h4V6C9,5.7648,8.9064,5.5591,8.7715,5.3887z"></path></svg>