<svg xmlns="http://www.w3.org/2000/svg" viewBox="0 0 17 17" height="17" width="17"><title>rail-metro-11.svg</title><rect fill="none" x="0" y="0" width="17" height="17"></rect><path fill="rgba(255,255,255,0.25)" transform="translate(3 3)" d="M3.5,0C3,0,3,0.5,3,0.5L2,5v1c0,1.0244,1,1,1,1h5c0,0,1,0,1-1V5L8,0.5C8,0.5,8,0,7.5,0H3.5z M4,1h3l0.5,3h-4
	L4,1z M3.5,5C3.7761,5,4,5.2239,4,5.5S3.7761,6,3.5,6S3,5.7761,3,5.5S3.2239,5,3.5,5z M5.25,5h0.5C5.8885,5,6,5.1115,6,5.25
	S5.8885,5.5,5.75,5.5h-0.5C5.1115,5.5,5,5.3885,5,5.25S5.1115,5,5.25,5z M7.5,5C7.7761,5,8,5.2239,8,5.5S7.7761,6,7.5,6
	S7,5.7761,7,5.5S7.2239,5,7.5,5z M3,8l-1,3h1.5l0.334-1h3.332L7.5,11H9L8,8H6.5l0.334,1H4.166L4.5,8H3z" style="stroke-linejoin:round;stroke-miterlimit:4px;" stroke="rgba(255,255,255,0.25)" stroke-width="2"></path><path fill="#444444" transform="translate(3 3)" d="M3.5,0C3,0,3,0.5,3,0.5L2,5v1c0,1.0244,1,1,1,1h5c0,0,1,0,1-1V5L8,0.5C8,0.5,8,0,7.5,0H3.5z M4,1h3l0.5,3h-4
	L4,1z M3.5,5C3.7761,5,4,5.2239,4,5.5S3.7761,6,3.5,6S3,5.7761,3,5.5S3.2239,5,3.5,5z M5.25,5h0.5C5.8885,5,6,5.1115,6,5.25
	S5.8885,5.5,5.75,5.5h-0.5C5.1115,5.5,5,5.3885,5,5.25S5.1115,5,5.25,5z M7.5,5C7.7761,5,8,5.2239,8,5.5S7.7761,6,7.5,6
	S7,5.7761,7,5.5S7.2239,5,7.5,5z M3,8l-1,3h1.5l0.334-1h3.332L7.5,11H9L8,8H6.5l0.334,1H4.166L4.5,8H3z"></path></svg>