<svg xmlns="http://www.w3.org/2000/svg" viewBox="0 0 21 21" height="21" width="21"><title>religious_muslim_15.svg</title><rect fill="none" x="0" y="0" width="21" height="21"></rect><rect x="1" y="1" rx="9.5" ry="9.5" width="19" height="19" stroke="#bbb" style="stroke-linejoin:round;stroke-miterlimit:4;" fill="#bbb" stroke-width="2"></rect><rect x="1" y="1" width="19" height="19" rx="9.5" ry="9.5" fill="#fff"></rect><path fill="#725a50" transform="translate(3 3)" d="M6.7941,0C3,0,0,3,0,6.7941
	s3,6.7941,6.7941,6.7941c2.1176,0,4.4118-0.7059,5.6471-2.2941C11.6471,11.8235,10.1471,12.4412,9,12.4412
	c-2.9118,0-5.1176-2.9118-5.1176-5.8235S6.0882,1.1471,9,1.1471c1.0588,0,2.5588,0.6176,3.4412,1.1471
	C11.2059,0.7059,8.9118,0,6.7941,0z M11,3l-1,2.5H7L9.5,7l-1,3L11,8.5l2.5,1.5l-1-3L15,5.5h-3L11,3z"></path></svg>