<svg xmlns="http://www.w3.org/2000/svg" viewBox="0 0 17 17" height="17" width="17"><title>rocket_11.svg</title><rect fill="none" x="0" y="0" width="17" height="17"></rect><rect x="1" y="1" rx="7.5" ry="7.5" width="15" height="15" stroke="#bbb" style="stroke-linejoin:round;stroke-miterlimit:4;" fill="#bbb" stroke-width="2"></rect><rect x="1" y="1" width="15" height="15" rx="7.5" ry="7.5" fill="#fff"></rect><path fill="#725a50" transform="translate(3 3)" d="M9,1C7.488,1,5.4077,2.1459,4.0488,4H3C2.1988,4,1.8162,4.3675,1.5,5L1,6h1h1l1,1l1,1v1v1l1-0.5
	C6.6325,9.1838,7,8.8012,7,8V6.9512C8.8541,5.5923,10,3.512,10,2V1H9z M7.5,3C7.7761,3,8,3.2239,8,3.5S7.7761,4,7.5,4
	S7,3.7761,7,3.5S7.2239,3,7.5,3z M2.75,7.25L2.5,7.5C2,8,2,9,2,9s0.9448,0.0552,1.5-0.5l0.25-0.25L2.75,7.25z"></path></svg>