<svg xmlns="http://www.w3.org/2000/svg" viewBox="0 0 17 17" height="17" width="17"><title>school-11.svg</title><rect fill="none" x="0" y="0" width="17" height="17"></rect><path fill="rgba(255,255,255,0.25)" transform="translate(3 3)" d="M8.5,9V8H10V6H7.5V5H10V3H8.5V2H10V1H6v9h4V9H8.5z M4,7H1V1h3V7z M4,8l-1.5,2L1,8H4z" style="stroke-linejoin:round;stroke-miterlimit:4px;" stroke="rgba(255,255,255,0.25)" stroke-width="2"></path><path fill="#444444" transform="translate(3 3)" d="M8.5,9V8H10V6H7.5V5H10V3H8.5V2H10V1H6v9h4V9H8.5z M4,7H1V1h3V7z M4,8l-1.5,2L1,8H4z"></path></svg>