<svg xmlns="http://www.w3.org/2000/svg" viewBox="0 0 21 21" height="21" width="21"><title>skiing_15.svg</title><rect fill="none" x="0" y="0" width="21" height="21"></rect><rect x="1" y="1" rx="9.5" ry="9.5" width="19" height="19" stroke="#bbb" style="stroke-linejoin:round;stroke-miterlimit:4;" fill="#bbb" stroke-width="2"></rect><rect x="1" y="1" width="19" height="19" rx="9.5" ry="9.5" fill="#fff"></rect><path fill="#76a723" transform="translate(3 3)" d="M15,4.5C15,5.3284,14.3284,6,13.5,6S12,5.3284,12,4.5S12.6716,3,13.5,3S15,3.6716,15,4.5z M13.72,11.89
	c-0.0623-0.1197-0.2083-0.1684-0.33-0.11c-0.6846,0.4194-1.5208,0.5111-2.28,0.25L4.78,8.86L7.5,7.5v-3L9,5.25v3L10.5,9L12,8.25
	L10.5,7.5V3l-3-1.5L6,2.25v4.5L3.28,8.11L0.61,6.78C0.4857,6.7192,0.3358,6.7707,0.275,6.895C0.2142,7.0193,0.2657,7.1692,0.39,7.23
	l10.5,5.25c0.3156,0.135,0.6568,0.1998,1,0.19c0.5998-0.0103,1.1889-0.161,1.72-0.44c0.1236-0.0615,0.174-0.2116,0.1125-0.3352
	C13.7217,11.8932,13.7208,11.8916,13.72,11.89z"></path></svg>