<svg xmlns="http://www.w3.org/2000/svg" viewBox="0 0 17 17" height="17" width="17"><title>skiing_11.svg</title><rect fill="none" x="0" y="0" width="17" height="17"></rect><rect x="1" y="1" rx="7.5" ry="7.5" width="15" height="15" stroke="#bbb" style="stroke-linejoin:round;stroke-miterlimit:4;" fill="#bbb" stroke-width="2"></rect><rect x="1" y="1" width="15" height="15" rx="7.5" ry="7.5" fill="#fff"></rect><path fill="#76a723" transform="translate(3 3)" d="M11,3.68c-0.0021,0.602-0.4917,1.0883-1.0937,1.0863C9.3043,4.7642,8.818,4.2745,8.82,3.6726
	c0.0021-0.602,0.4917-1.0883,1.0937-1.0863C9.9425,2.5864,9.9713,2.5876,10,2.59C10.5666,2.6369,11.0019,3.1115,11,3.68z M10.17,9
	c-0.0623-0.1197-0.2083-0.1684-0.33-0.11C9.3623,9.1811,8.7807,9.247,8.25,9.07L3.69,6.81l1.9-1V3.68l1.09,0.55v2.18L7.77,7
	l1.09-0.55L7.77,5.86V2.59L5.59,1.5L4.5,2v3.32l-1.9,1l-2-1C0.4757,5.2592,0.3258,5.3107,0.265,5.435
	C0.2042,5.5593,0.2557,5.7092,0.38,5.77l0,0L8,9.54c0.2402,0.1011,0.4995,0.1489,0.76,0.14c0.4466-0.0082,0.8851-0.1212,1.28-0.33
	c0.1286-0.0502,0.1922-0.1951,0.142-0.3238C10.1785,9.0173,10.1745,9.0085,10.17,9z"></path></svg>