<svg xmlns="http://www.w3.org/2000/svg" viewBox="0 0 21 21" height="21" width="21"><title>stadium_15.svg</title><rect fill="none" x="0" y="0" width="21" height="21"></rect><rect x="1" y="1" rx="9.5" ry="9.5" width="19" height="19" stroke="#bbb" style="stroke-linejoin:round;stroke-miterlimit:4;" fill="#bbb" stroke-width="2"></rect><rect x="1" y="1" width="19" height="19" rx="9.5" ry="9.5" fill="#fff"></rect><path fill="#5d60be" transform="translate(3 3)" d="M7,1v2v1.5v0.5098C4.1695,5.1037,2.0021,5.9665,2,7v4.5c0,1.1046,2.4624,2,5.5,2s5.5-0.8954,5.5-2V7
	c-0.0021-1.0335-2.1695-1.8963-5-1.9902V4.0625L11,2.75L7,1z M3,8.1465c0.5148,0.2671,1.2014,0.4843,2,0.6328v2.9668
	C3.7948,11.477,3,11.0199,3,10.5V8.1465z M12,8.1484V10.5c0,0.5199-0.7948,0.977-2,1.2461V8.7812
	C10.7986,8.6328,11.4852,8.4155,12,8.1484z M6,8.9219C6.4877,8.973,6.9925,8.9992,7.5,9C8.0073,8.9999,8.5121,8.9743,9,8.9238
	v2.9844C8.5287,11.964,8.0288,12,7.5,12S6.4713,11.964,6,11.9082V8.9219z"></path></svg>