<svg xmlns="http://www.w3.org/2000/svg" viewBox="0 0 17 17" height="17" width="17"><title>stadium_11.svg</title><rect fill="none" x="0" y="0" width="17" height="17"></rect><rect x="1" y="1" rx="7.5" ry="7.5" width="15" height="15" stroke="#bbb" style="stroke-linejoin:round;stroke-miterlimit:4;" fill="#bbb" stroke-width="2"></rect><rect x="1" y="1" width="15" height="15" rx="7.5" ry="7.5" fill="#fff"></rect><path fill="#5d60be" transform="translate(3 3)" d="M5,0v3v0.0117
	C2.7922,3.1089,1.0876,3.8182,1,4.6816c0,0,0,2.4594,0,3.6816C0.9995,9.2672,3.0143,10,5.5,10s4.5005-0.7328,4.5-1.6367V4.6816
	C9.9122,3.8177,8.2093,3.1082,6,3.0117V2.5723L8.5,1.5L5,0z M1.8184,5.752C2.1366,5.9302,2.5373,6.0838,3,6.2051v2.459
	C2.2493,8.4283,1.8213,8.0972,1.8184,7.75V5.752z M9.1816,5.7559V7.75C9.1803,8.0979,8.7521,8.4298,8,8.666V6.2031
	C8.4614,6.0836,8.862,5.932,9.1816,5.7559z M4,6.3984C4.4815,6.4652,4.9888,6.4995,5.5,6.5C6.0112,6.4995,6.5185,6.4652,7,6.3984
	v2.4922C6.5282,8.9624,6.0171,8.9997,5.5,9C4.9829,8.9997,4.4718,8.9624,4,8.8906V6.3984z"></path></svg>