<svg xmlns="http://www.w3.org/2000/svg" viewBox="0 0 17 17" height="17" width="17"><title>sushi_11.svg</title><rect fill="none" x="0" y="0" width="17" height="17"></rect><rect x="1" y="1" rx="7.5" ry="7.5" width="15" height="15" stroke="#bbb" style="stroke-linejoin:round;stroke-miterlimit:4;" fill="#bbb" stroke-width="2"></rect><rect x="1" y="1" width="15" height="15" rx="7.5" ry="7.5" fill="#fff"></rect><path fill="#d97200" transform="translate(3 3)" d="M3.5,2.5C3.2,2.5,3,2.6,3,2.9l0,0H2.1c-1.1,0-2,0.8-2,1.9c0,0.5,0.3,1,0.7,1.4
	C0.3,6.5,0,6.9,0,7.5C0,8.3,0.7,9,1.6,9h1.9h2h1.9C8.3,9,9,8.3,9,7.5c0-0.2,0-0.4-0.1-0.6l1,0.5c0.4,0.2,0.8,0,1-0.3
	c0.2-0.4-0.053-0.7941-0.3427-0.9442L9.8,5.8l0.5-0.1c0.4-0.1,0.7-0.4,0.6-0.8c-0.1-0.4-0.4-0.6-0.8-0.6l0,0H10L8.4,4.6
	C8,3.9,7.3,3.1,6,3c0,0,0-0.5-0.5-0.5l0,0H3.5z M4,3.5h1v4.4l0,0l0,0H4l0,0l0,0V3.5z M7,5.9c0.2,0,0.3,0.1,0.4,0.3l0.1-0.1
	C7.6,5.9,7.8,5.9,8,6s0.2,0.3,0.1,0.5L7.8,7C7.9,7.1,8,7.2,8,7.4c0,0.3-0.2,0.5-0.6,0.5H6v-1h0.7V6.3C6.7,6.1,6.8,5.9,7,5.9z M1.9,6
	C2,6,2.2,6,2.3,6.2l0.1,0.2c0.1-0.1,0.2-0.1,0.3-0.1C2.9,6.3,3,6.5,3,6.6v0.8l0,0v0.5H1.6C1.2,7.9,1,7.7,1,7.4s0.2-0.5,0.6-0.5h0.3
	L1.7,6.5c-0.1-0.2,0-0.4,0.1-0.5C1.8,6,1.8,6,1.9,6z"></path></svg>