<svg xmlns="http://www.w3.org/2000/svg" viewBox="0 0 17 17" height="17" width="17"><title>swimming_11.svg</title><rect fill="none" x="0" y="0" width="17" height="17"></rect><rect x="1" y="1" rx="7.5" ry="7.5" width="15" height="15" stroke="#bbb" style="stroke-linejoin:round;stroke-miterlimit:4;" fill="#bbb" stroke-width="2"></rect><rect x="1" y="1" width="15" height="15" rx="7.5" ry="7.5" fill="#fff"></rect><path fill="#76a723" transform="translate(3 3)" d="M8.0039,0.4941l-0.6992,0.502L4.6035,2.5977
	C4.3036,2.6967,4.2042,3.1962,4.4023,3.4961l0.5996,1.002l-2.5,2l1,1.002l2-1.002L7.5039,7.5l1-1.002l-3.002-3.502l3.002-1.5v-1.002
	C8.5039,0.4941,8.0039,0.4941,8.0039,0.4941z M9.0059,2.9961c-0.553,0-1.002,0.4489-1.002,1.002s0.4489,1,1.002,1
	c0.553,0,1-0.447,1-1S9.5589,2.9961,9.0059,2.9961z M2,7.998L0,9v1l2-1l1.5,1l2-1l2,1L9,9l2,1V9L9,7.998L7.5,9l-2-1.002L3.5,9
	L2,7.998z"></path></svg>