<svg xmlns="http://www.w3.org/2000/svg" viewBox="0 0 21 21" height="21" width="21"><title>telephone_15.svg</title><rect fill="none" x="0" y="0" width="21" height="21"></rect><rect x="1" y="1" rx="9.5" ry="9.5" width="19" height="19" stroke="#bbb" style="stroke-linejoin:round;stroke-miterlimit:4;" fill="#bbb" stroke-width="2"></rect><rect x="1" y="1" width="19" height="19" rx="9.5" ry="9.5" fill="#fff"></rect><path fill="#725a50" transform="translate(3 3)" d="M4.51,8.88c-0.1983,0.199-0.1983,0.521,0,0.72l0.72,0.72L3.07,12.5L2.7,12.13c-0.4028-0.3774-0.652-0.8902-0.7-1.44V9.24
	c0.0456-0.5534,0.295-1.0701,0.7-1.45l0.36-0.36l4.35-4.35l0.36-0.36C8.1467,2.3076,8.6638,2.0508,9.22,2h1.45
	c0.5562,0.0508,1.0733,0.3076,1.45,0.72l0.36,0.36l-2.17,2.18L9.58,4.53c-0.199-0.1983-0.521-0.1983-0.72,0L4.51,8.88z M4.85,12.88
	L4.13,13.6c0.3804,0.4004,1.0133,0.4166,1.4137,0.0363C5.5561,13.6245,5.5682,13.6124,5.58,13.6l0.72-0.72
	c0.4004-0.3804,0.4166-1.0133,0.0363-1.4137C6.3245,11.4539,6.3124,11.4418,6.3,11.43l-0.72,0.72L4.85,12.88z M12.85,4.88L12.1,5.6
	l-0.72,0.72c0.3804,0.4004,1.0133,0.4166,1.4137,0.0363C12.8061,6.3445,12.8182,6.3324,12.83,6.32l0.72-0.72
	c0.4004-0.3804,0.4166-1.0133,0.0363-1.4137C13.5745,4.1739,13.5624,4.1618,13.55,4.15L12.85,4.88z"></path></svg>