<svg xmlns="http://www.w3.org/2000/svg" viewBox="0 0 21 21" height="21" width="21"><title>tennis_15.svg</title><rect fill="none" x="0" y="0" width="21" height="21"></rect><rect x="1" y="1" rx="9.5" ry="9.5" width="19" height="19" stroke="#bbb" style="stroke-linejoin:round;stroke-miterlimit:4;" fill="#bbb" stroke-width="2"></rect><rect x="1" y="1" width="19" height="19" rx="9.5" ry="9.5" fill="#fff"></rect><path fill="#76a723" transform="translate(3 3)" d="M8,4.5C8,5.3284,7.3284,6,6.5,6S5,5.3284,5,4.5S5.6716,3,6.5,3S8,3.6716,8,4.5z M14.38,5.05L14.38,5.05l-1.57-1.59
	c0.3629-0.7766,0.1576-1.7002-0.5-2.25c-0.4027-0.4248-0.9552-0.6759-1.54-0.7c-0.338-0.0102-0.6659,0.1159-0.91,0.35
	c-0.5576,0.7788-0.4034,1.8585,0.35,2.45c0.4027,0.4248,0.9552,0.6759,1.54,0.7c0.2452-0.0035,0.4844-0.0763,0.69-0.21L14,5.39l0,0
	c0.0399,0.0733,0.1165,0.1193,0.2,0.12c0.1381,0,0.25-0.1119,0.25-0.25C14.4623,5.1828,14.4361,5.1044,14.38,5.05z M12.31,3.3
	c-0.1524,0.139-0.3541,0.211-0.56,0.2c-0.4422-0.0125-0.8635-0.191-1.18-0.5c-0.5432-0.406-0.694-1.1556-0.35-1.74
	c0.1406-0.1575,0.339-0.2513,0.55-0.26c0.4682,0.0155,0.9109,0.2171,1.23,0.56C12.5295,1.9775,12.6627,2.7253,12.31,3.3z
	 M12.85,5.64c-0.1945-0.1961-0.511-0.1974-0.7071-0.0029C12.1419,5.6381,12.141,5.639,12.14,5.64L10.79,7h-4.9
	C5.6621,7.0025,5.4647,7.1587,5.41,7.38l-0.79,3.11l0,0L3.9,13.36c-0.0863,0.2594,0.0518,0.5401,0.31,0.63h0.16
	c0.2131-0.0016,0.4018-0.1381,0.47-0.34l0.8-3.19H7v3c0,0.2761,0.2239,0.5,0.5,0.5S8,13.7361,8,13.46v-3L9,8h2.21l1.65-1.65
	c0.1878-0.1971,0.1834-0.5083-0.01-0.7V5.64z"></path></svg>