<svg xmlns="http://www.w3.org/2000/svg" viewBox="0 0 17 17" height="17" width="17"><title>tennis_11.svg</title><rect fill="none" x="0" y="0" width="17" height="17"></rect><rect x="1" y="1" rx="7.5" ry="7.5" width="15" height="15" stroke="#bbb" style="stroke-linejoin:round;stroke-miterlimit:4;" fill="#bbb" stroke-width="2"></rect><rect x="1" y="1" width="15" height="15" rx="7.5" ry="7.5" fill="#fff"></rect><path fill="#76a723" transform="translate(3 3)" d="M3,3c0,0.5523-0.4477,1-1,1S1,3.5523,1,3s0.4477-1,1-1S3,2.4477,3,3z M9.87,4.55L9.87,4.55L8.3,3
	c0.3893-0.7896,0.182-1.7433-0.5-2.3C7.3973,0.2752,6.8448,0.0241,6.26,0C5.922-0.0102,5.5941,0.1159,5.35,0.35
	C4.7924,1.1288,4.9466,2.2085,5.7,2.8c0.4027,0.4248,0.9552,0.6759,1.54,0.7c0.2452-0.0035,0.4844-0.0763,0.69-0.21l1.6,1.6l0,0
	c0.0399,0.0733,0.1165,0.1193,0.2,0.12c0.1376,0.0112,0.2582-0.0913,0.2694-0.2289C10.0003,4.7707,10.0004,4.7604,10,4.75
	C9.9952,4.665,9.9457,4.5889,9.87,4.55z M7.8,2.8C7.6476,2.939,7.4459,3.011,7.24,3C6.7873,2.9767,6.361,2.7797,6.05,2.45
	C5.5012,2.0431,5.3499,1.2866,5.7,0.7c0.1529-0.138,0.3542-0.2099,0.56-0.2c0.4527,0.0233,0.879,0.2203,1.19,0.55
	C7.9988,1.4569,8.1501,2.2134,7.8,2.8z M6.5,5h-5C1.2239,5,1,5.2239,1,5.5v5C1,10.7761,1.2239,11,1.5,11S2,10.7761,2,10.5V8h1v2.5
	C3,10.7761,3.2239,11,3.5,11S4,10.7761,4,10.5V6h2.5C6.7761,6,7,5.7761,7,5.5S6.7761,5,6.5,5z"></path></svg>