<svg xmlns="http://www.w3.org/2000/svg" viewBox="0 0 17 17" height="17" width="17"><title>volcano_11.svg</title><rect fill="none" x="0" y="0" width="17" height="17"></rect><rect x="1" y="1" rx="7.5" ry="7.5" width="15" height="15" stroke="#bbb" style="stroke-linejoin:round;stroke-miterlimit:4;" fill="#bbb" stroke-width="2"></rect><rect x="1" y="1" width="15" height="15" rx="7.5" ry="7.5" fill="#fff"></rect><path fill="#76a723" transform="translate(3 3)" d="M3,1l1.5,3h2L8,3V2L6,3V1H5.5L5,2.5L3.5,1H3z M3.5215,5l-2.498,4.1602C0.8007,9.5296,1.0679,9.9999,1.5,10h8
	c0.4321-0.0001,0.6993-0.4704,0.4766-0.8398L7.4785,5H7v0.5C7,5.777,6.777,6,6.5,6S6,5.777,6,5.5C6,5.2239,5.7761,5,5.5,5
	S5,5.2239,5,5.5v2C5,7.777,4.777,8,4.5,8S4,7.777,4,7.5V5H3.5215z"></path></svg>