<svg xmlns="http://www.w3.org/2000/svg" viewBox="0 0 15 15" height="15" width="15"><title>warehouse_11.svg</title><rect fill="none" x="0" y="0" width="15" height="15"></rect><path fill="#725a50" transform="translate(2 2)" d="M3,11H0V8h3V11z M7,8H4v3h3V8z M11,8H8v3h3V8z M5,4H2v3h3V4z M9,4H6v3h3V4z M10.44,3.24
	c0.1349-0.2403,0.0499-0.5444-0.19-0.68l-4.5-2.5c-0.1521-0.0855-0.3379-0.0855-0.49,0l-4.5,2.5
	C0.5272,2.7085,0.4588,3.0176,0.6073,3.2504C0.7444,3.4654,1.0213,3.5428,1.25,3.43L5.5,1.07l4.26,2.37
	c0.2421,0.1328,0.546,0.0442,0.6789-0.1979C10.4392,3.2414,10.4396,3.2407,10.44,3.24z"></path></svg>