<svg xmlns="http://www.w3.org/2000/svg" viewBox="0 0 17 17" height="17" width="17"><title>zoo-11.svg</title><rect fill="none" x="0" y="0" width="17" height="17"></rect><path fill="rgba(255,255,255,0.25)" transform="translate(3 3)" d="M8,2C7.1,2,6.5,2.5,6.2,3.1C6.2,3.1,5.5,4,5,4H3C2.5,4,2,4.5,2,4.5l-2,2V7h0.5l1.2-1.2L1.9,6
	C1.9,6,1,7.7,1,9c0,0.5,0.5,0.5,0.5,0.5H2c0,0,0.2,0,0-0.2L1.8,9.1c0-0.5,0.8-1.4,1.2-1.9c0,0,0,0.8,0,1.4
	c0,0.3,0.1111,0.9,0.4111,0.9h0.5c0,0,0.2,0,0-0.2l-0.2-0.2C3.5111,8.7,4.3,7.5,4.3,7.5h1.8L6.6,9c0.2,0.5,0.5,0.5,0.5,0.5h1
	c0.2,0,0.7-0.2,0.2-0.5L8.1,8.8V7l0,0c1,0,1.1-1.3,1.5-1.7l0.7-0.1c0.2,0,0.8-0.2,0.8-0.8V4L9.9,3l0,0C9.4,2.4,8.7,2,8,2z" style="stroke-linejoin:round;stroke-miterlimit:4px;" stroke="rgba(255,255,255,0.25)" stroke-width="2"></path><path fill="#444444" transform="translate(3 3)" d="M8,2C7.1,2,6.5,2.5,6.2,3.1C6.2,3.1,5.5,4,5,4H3C2.5,4,2,4.5,2,4.5l-2,2V7h0.5l1.2-1.2L1.9,6
	C1.9,6,1,7.7,1,9c0,0.5,0.5,0.5,0.5,0.5H2c0,0,0.2,0,0-0.2L1.8,9.1c0-0.5,0.8-1.4,1.2-1.9c0,0,0,0.8,0,1.4
	c0,0.3,0.1111,0.9,0.4111,0.9h0.5c0,0,0.2,0,0-0.2l-0.2-0.2C3.5111,8.7,4.3,7.5,4.3,7.5h1.8L6.6,9c0.2,0.5,0.5,0.5,0.5,0.5h1
	c0.2,0,0.7-0.2,0.2-0.5L8.1,8.8V7l0,0c1,0,1.1-1.3,1.5-1.7l0.7-0.1c0.2,0,0.8-0.2,0.8-0.8V4L9.9,3l0,0C9.4,2.4,8.7,2,8,2z"></path></svg>