<svg xmlns="http://www.w3.org/2000/svg" viewBox="0 0 17 17" height="17" width="17"><title>amusement-park-11.svg</title><rect fill="none" x="0" y="0" width="17" height="17"></rect><path fill="rgba(255,255,255,0.25)" transform="translate(3 3)" d="M5.5,1C3.0206,1,1,3.0206,1,5.5c0,1.7919,1.0627,3.3316,2.584,4.0547L2.5,11h6L7.416,9.5547
	C8.9373,8.8316,10,7.2919,10,5.5C10,3.0206,7.9794,1,5.5,1z M5.375,2.0117v1.9941c-0.3108,0.026-0.6057,0.1482-0.8438,0.3496
	L3.1191,2.9434C3.7146,2.3888,4.5013,2.0428,5.375,2.0117z M5.625,2.0117c0.8737,0.0311,1.6604,0.3771,2.2559,0.9316L6.4688,4.3555
	c-0.0007-0.0007-0.0013-0.0013-0.002-0.002C6.229,4.1532,5.9348,4.0317,5.625,4.0059V2.0117z M2.9434,3.1191l1.4121,1.4121
	c-0.0007,0.0007-0.0013,0.0013-0.002,0.002C4.1532,4.771,4.0317,5.0652,4.0059,5.375H2.0117
	C2.0428,4.5013,2.3888,3.7146,2.9434,3.1191z M8.0566,3.1191C8.6112,3.7146,8.9572,4.5013,8.9883,5.375H6.9941
	c-0.026-0.3108-0.1482-0.6057-0.3496-0.8438L8.0566,3.1191z M2.0117,5.625h1.9941c0.026,0.3108,0.1482,0.6057,0.3496,0.8438
	L2.9434,7.8809C2.3888,7.2854,2.0428,6.4987,2.0117,5.625z M6.9941,5.625h1.9941C8.9572,6.4987,8.6112,7.2854,8.0566,7.8809
	L6.6445,6.4688c0.0007-0.0007,0.0013-0.0013,0.002-0.002C6.8468,6.229,6.9683,5.9348,6.9941,5.625z M4.5312,6.6445
	c0.0007,0.0007,0.0013,0.0013,0.002,0.002C4.6716,6.7624,4.8297,6.8524,5,6.9121v2.0391C4.2765,8.8476,3.6278,8.5303,3.1191,8.0566
	L4.5312,6.6445z M6.4688,6.6445l1.4121,1.4121C7.3722,8.5303,6.7235,8.8476,6,8.9512V6.9121C6.1711,6.852,6.33,6.7613,6.4688,6.6445
	z" style="stroke-linejoin:round;stroke-miterlimit:4px;" stroke="rgba(255,255,255,0.25)" stroke-width="2"></path><path fill="#444444" transform="translate(3 3)" d="M5.5,1C3.0206,1,1,3.0206,1,5.5c0,1.7919,1.0627,3.3316,2.584,4.0547L2.5,11h6L7.416,9.5547
	C8.9373,8.8316,10,7.2919,10,5.5C10,3.0206,7.9794,1,5.5,1z M5.375,2.0117v1.9941c-0.3108,0.026-0.6057,0.1482-0.8438,0.3496
	L3.1191,2.9434C3.7146,2.3888,4.5013,2.0428,5.375,2.0117z M5.625,2.0117c0.8737,0.0311,1.6604,0.3771,2.2559,0.9316L6.4688,4.3555
	c-0.0007-0.0007-0.0013-0.0013-0.002-0.002C6.229,4.1532,5.9348,4.0317,5.625,4.0059V2.0117z M2.9434,3.1191l1.4121,1.4121
	c-0.0007,0.0007-0.0013,0.0013-0.002,0.002C4.1532,4.771,4.0317,5.0652,4.0059,5.375H2.0117
	C2.0428,4.5013,2.3888,3.7146,2.9434,3.1191z M8.0566,3.1191C8.6112,3.7146,8.9572,4.5013,8.9883,5.375H6.9941
	c-0.026-0.3108-0.1482-0.6057-0.3496-0.8438L8.0566,3.1191z M2.0117,5.625h1.9941c0.026,0.3108,0.1482,0.6057,0.3496,0.8438
	L2.9434,7.8809C2.3888,7.2854,2.0428,6.4987,2.0117,5.625z M6.9941,5.625h1.9941C8.9572,6.4987,8.6112,7.2854,8.0566,7.8809
	L6.6445,6.4688c0.0007-0.0007,0.0013-0.0013,0.002-0.002C6.8468,6.229,6.9683,5.9348,6.9941,5.625z M4.5312,6.6445
	c0.0007,0.0007,0.0013,0.0013,0.002,0.002C4.6716,6.7624,4.8297,6.8524,5,6.9121v2.0391C4.2765,8.8476,3.6278,8.5303,3.1191,8.0566
	L4.5312,6.6445z M6.4688,6.6445l1.4121,1.4121C7.3722,8.5303,6.7235,8.8476,6,8.9512V6.9121C6.1711,6.852,6.33,6.7613,6.4688,6.6445
	z"></path></svg>