<svg xmlns="http://www.w3.org/2000/svg" viewBox="0 0 17 17" height="17" width="17"><title>beer-11.svg</title><rect fill="none" x="0" y="0" width="17" height="17"></rect><path fill="rgba(255,255,255,0.25)" transform="translate(3 3)" d="M5.5,1c-2.3,0-3,0.66-3,0.66v2c0.0328,0.9197,0.2577,1.8223,0.66,2.65c0.376,0.9646,0.376,2.0354,0,3c0,0,0,0.66,2.32,0.66
	S7.8,9.31,7.8,9.31c-0.376-0.9646-0.376-2.0354,0-3c0.4023-0.8277,0.6272-1.7303,0.66-2.65v-2C8.46,1.66,7.8,1,5.5,1z M5.5,9.28
	C4.9736,9.3066,4.4465,9.2458,3.94,9.1c0.1326-0.4787,0.1999-0.9732,0.2-1.47h2.72c-0.0144,0.2198-0.0144,0.4402,0,0.66
	C6.8939,8.5635,6.9474,8.8342,7.02,9.1C6.5269,9.2448,6.0136,9.309,5.5,9.29V9.28z M7.82,3.28c-1.5116,0.4425-3.1184,0.4425-4.63,0
	L3.18,2c1.5151-0.4422,3.1249-0.4422,4.64,0c0,0,0.03,1.33,0,1.33L7.82,3.28z" style="stroke-linejoin:round;stroke-miterlimit:4px;" stroke="rgba(255,255,255,0.25)" stroke-width="2"></path><path fill="#444444" transform="translate(3 3)" d="M5.5,1c-2.3,0-3,0.66-3,0.66v2c0.0328,0.9197,0.2577,1.8223,0.66,2.65c0.376,0.9646,0.376,2.0354,0,3c0,0,0,0.66,2.32,0.66
	S7.8,9.31,7.8,9.31c-0.376-0.9646-0.376-2.0354,0-3c0.4023-0.8277,0.6272-1.7303,0.66-2.65v-2C8.46,1.66,7.8,1,5.5,1z M5.5,9.28
	C4.9736,9.3066,4.4465,9.2458,3.94,9.1c0.1326-0.4787,0.1999-0.9732,0.2-1.47h2.72c-0.0144,0.2198-0.0144,0.4402,0,0.66
	C6.8939,8.5635,6.9474,8.8342,7.02,9.1C6.5269,9.2448,6.0136,9.309,5.5,9.29V9.28z M7.82,3.28c-1.5116,0.4425-3.1184,0.4425-4.63,0
	L3.18,2c1.5151-0.4422,3.1249-0.4422,4.64,0c0,0,0.03,1.33,0,1.33L7.82,3.28z"></path></svg>