<svg xmlns="http://www.w3.org/2000/svg" viewBox="0 0 17 17" height="17" width="17"><title>campsite-11.svg</title><rect fill="none" x="0" y="0" width="17" height="17"></rect><path fill="rgba(255,255,255,0.25)" transform="translate(3 3)" d="M5.92,2.19C5.7745,1.9553,5.4663,1.8829,5.2316,2.0284C5.166,2.0691,5.1107,2.1244,5.07,2.19L1.5,8h-1
	C0.2724,7.9555,0.0517,8.104,0.0072,8.3316C0.0034,8.3509,0.001,8.3704,0,8.39V9.5C-0.0056,9.7706,0.2092,9.9944,0.4798,10
	c0.0067,0.0001,0.0135,0.0001,0.0202,0h10c0.2706,0.0056,0.4944-0.2092,0.5-0.4798c0.0001-0.0067,0.0001-0.0135,0-0.0202V8.39
	c-0.0123-0.2316-0.21-0.4095-0.4416-0.3972C10.5388,7.9938,10.5193,7.9962,10.5,8h-1L5.92,2.19z M5.5,3l3,5h-6L5.5,3z" style="stroke-linejoin:round;stroke-miterlimit:4px;" stroke="rgba(255,255,255,0.25)" stroke-width="2"></path><path fill="#444444" transform="translate(3 3)" d="M5.92,2.19C5.7745,1.9553,5.4663,1.8829,5.2316,2.0284C5.166,2.0691,5.1107,2.1244,5.07,2.19L1.5,8h-1
	C0.2724,7.9555,0.0517,8.104,0.0072,8.3316C0.0034,8.3509,0.001,8.3704,0,8.39V9.5C-0.0056,9.7706,0.2092,9.9944,0.4798,10
	c0.0067,0.0001,0.0135,0.0001,0.0202,0h10c0.2706,0.0056,0.4944-0.2092,0.5-0.4798c0.0001-0.0067,0.0001-0.0135,0-0.0202V8.39
	c-0.0123-0.2316-0.21-0.4095-0.4416-0.3972C10.5388,7.9938,10.5193,7.9962,10.5,8h-1L5.92,2.19z M5.5,3l3,5h-6L5.5,3z"></path></svg>