<svg xmlns="http://www.w3.org/2000/svg" viewBox="0 0 17 17" height="17" width="17"><title>cinema-11.svg</title><rect fill="none" x="0" y="0" width="17" height="17"></rect><path fill="rgba(255,255,255,0.25)" transform="translate(3 3)" d="M10,5.5v2C10,7.7761,9.7761,8,9.5,8S9,7.7761,9,7.5l0,0C8.9427,7.2478,8.7433,7.0523,8.49,7H8v1.63
	C8,8.8343,7.8343,9,7.63,9H1.37C1.1657,9,1,8.8343,1,8.63V5.37C1,5.1657,1.1657,5,1.37,5h6.26C7.8343,5,8,5.1657,8,5.37V6h0.49
	C8.7433,5.9477,8.9427,5.7522,9,5.5C9,5.2239,9.2239,5,9.5,5S10,5.2239,10,5.5z M2.5,2C1.6716,2,1,2.6716,1,3.5S1.6716,5,2.5,5
	S4,4.3284,4,3.5S3.3284,2,2.5,2z M2.5,4C2.2239,4,2,3.7761,2,3.5S2.2239,3,2.5,3S3,3.2239,3,3.5S2.7761,4,2.5,4z M6,1
	C4.8954,1,4,1.8954,4,3s0.8954,2,2,2s2-0.8954,2-2S7.1046,1,6,1z M6,4C5.4477,4,5,3.5523,5,3s0.4477-1,1-1s1,0.4477,1,1
	S6.5523,4,6,4z" style="stroke-linejoin:round;stroke-miterlimit:4px;" stroke="rgba(255,255,255,0.25)" stroke-width="2"></path><path fill="#444444" transform="translate(3 3)" d="M10,5.5v2C10,7.7761,9.7761,8,9.5,8S9,7.7761,9,7.5l0,0C8.9427,7.2478,8.7433,7.0523,8.49,7H8v1.63
	C8,8.8343,7.8343,9,7.63,9H1.37C1.1657,9,1,8.8343,1,8.63V5.37C1,5.1657,1.1657,5,1.37,5h6.26C7.8343,5,8,5.1657,8,5.37V6h0.49
	C8.7433,5.9477,8.9427,5.7522,9,5.5C9,5.2239,9.2239,5,9.5,5S10,5.2239,10,5.5z M2.5,2C1.6716,2,1,2.6716,1,3.5S1.6716,5,2.5,5
	S4,4.3284,4,3.5S3.3284,2,2.5,2z M2.5,4C2.2239,4,2,3.7761,2,3.5S2.2239,3,2.5,3S3,3.2239,3,3.5S2.7761,4,2.5,4z M6,1
	C4.8954,1,4,1.8954,4,3s0.8954,2,2,2s2-0.8954,2-2S7.1046,1,6,1z M6,4C5.4477,4,5,3.5523,5,3s0.4477-1,1-1s1,0.4477,1,1
	S6.5523,4,6,4z"></path></svg>