<svg xmlns="http://www.w3.org/2000/svg" viewBox="0 0 17 17" height="17" width="17"><title>circle-stroked-11.svg</title><rect fill="none" x="0" y="0" width="17" height="17"></rect><path fill="rgba(255,255,255,0.25)" transform="translate(3 3)" d="M5.5,0C8.5376,0,11,2.4624,11,5.5S8.5376,11,5.5,11S0,8.5376,0,5.5
	S2.4624,0,5.5,0z M5.5,1.2222c-2.3626,0-4.2778,1.9152-4.2778,4.2778S3.1374,9.7778,5.5,9.7778S9.7778,7.8626,9.7778,5.5
	S7.8626,1.2222,5.5,1.2222z" style="stroke-linejoin:round;stroke-miterlimit:4px;" stroke="rgba(255,255,255,0.25)" stroke-width="2"></path><path fill="#444444" transform="translate(3 3)" d="M5.5,0C8.5376,0,11,2.4624,11,5.5S8.5376,11,5.5,11S0,8.5376,0,5.5
	S2.4624,0,5.5,0z M5.5,1.2222c-2.3626,0-4.2778,1.9152-4.2778,4.2778S3.1374,9.7778,5.5,9.7778S9.7778,7.8626,9.7778,5.5
	S7.8626,1.2222,5.5,1.2222z"></path></svg>