<svg xmlns="http://www.w3.org/2000/svg" viewBox="0 0 17 17" height="17" width="17"><title>drinking-water-11.svg</title><rect fill="none" x="0" y="0" width="17" height="17"></rect><path fill="rgba(255,255,255,0.25)" transform="translate(3 3)" d="M10,3H5C4.7239,3,4.5,3.2239,4.5,3.5V5h-2V2.51C2.4945,1.6816,3.1616,1.0056,3.99,1C3.9933,1,3.9967,1,4,1h6V3z M4.38,8.56
	L4.38,8.56L3.49,7L2.6,8.55l0,0C2.5286,8.6893,2.4909,8.8435,2.49,9c0.0003,0.5523,0.4482,0.9998,1.0005,0.9995
	C4.0424,9.9992,4.4897,9.5519,4.49,9C4.4875,8.8468,4.4499,8.6963,4.38,8.56z" style="stroke-linejoin:round;stroke-miterlimit:4px;" stroke="rgba(255,255,255,0.25)" stroke-width="2"></path><path fill="#444444" transform="translate(3 3)" d="M10,3H5C4.7239,3,4.5,3.2239,4.5,3.5V5h-2V2.51C2.4945,1.6816,3.1616,1.0056,3.99,1C3.9933,1,3.9967,1,4,1h6V3z M4.38,8.56
	L4.38,8.56L3.49,7L2.6,8.55l0,0C2.5286,8.6893,2.4909,8.8435,2.49,9c0.0003,0.5523,0.4482,0.9998,1.0005,0.9995
	C4.0424,9.9992,4.4897,9.5519,4.49,9C4.4875,8.8468,4.4499,8.6963,4.38,8.56z"></path></svg>