<svg xmlns="http://www.w3.org/2000/svg" viewBox="0 0 17 17" height="17" width="17"><title>golf-11.svg</title><rect fill="none" x="0" y="0" width="17" height="17"></rect><path fill="rgba(255,255,255,0.25)" transform="translate(3 3)" d="M4.0492,0.638
	C3.5323,1.1814,4.2729,1.813,4.7284,1.3132l0.4953-0.5434l2.3326,1.3937L3.3063,4.5C3.0126,4.6615,2.9648,4.9407,3.0724,5.2212
	l0.8886,2.3165l-0.9355,2.8046C2.8974,10.7268,3.1975,10.991,3.5001,11c0.1954,0.0058,0.3919-0.093,0.4747-0.3413l0.9199-2.7636
	l0.8535-0.2832L6,8.1172V10.5c0,0,0,0.5,0.5,0.5S7,10.5,7,10.5V8.1172C7,8,6.9893,7.8618,6.9358,7.7548L5.6546,4.415l2.5528-1.4035
	c0.1868-0.0802,0.2901-0.2535,0.2901-0.5115c0-0.2259-0.2177-0.413-0.4564-0.5556L4.9047,0.0706
	c-0.1595-0.0953-0.2749-0.043-0.3226,0.0071L4.0492,0.638z M3,2.0002c-0.5523,0-1,0.4477-1,1s0.4477,1,1,1s1-0.4477,1-1
	S3.5523,2.0002,3,2.0002z" style="stroke-linejoin:round;stroke-miterlimit:4px;" stroke="rgba(255,255,255,0.25)" stroke-width="2"></path><path fill="#444444" transform="translate(3 3)" d="M4.0492,0.638
	C3.5323,1.1814,4.2729,1.813,4.7284,1.3132l0.4953-0.5434l2.3326,1.3937L3.3063,4.5C3.0126,4.6615,2.9648,4.9407,3.0724,5.2212
	l0.8886,2.3165l-0.9355,2.8046C2.8974,10.7268,3.1975,10.991,3.5001,11c0.1954,0.0058,0.3919-0.093,0.4747-0.3413l0.9199-2.7636
	l0.8535-0.2832L6,8.1172V10.5c0,0,0,0.5,0.5,0.5S7,10.5,7,10.5V8.1172C7,8,6.9893,7.8618,6.9358,7.7548L5.6546,4.415l2.5528-1.4035
	c0.1868-0.0802,0.2901-0.2535,0.2901-0.5115c0-0.2259-0.2177-0.413-0.4564-0.5556L4.9047,0.0706
	c-0.1595-0.0953-0.2749-0.043-0.3226,0.0071L4.0492,0.638z M3,2.0002c-0.5523,0-1,0.4477-1,1s0.4477,1,1,1s1-0.4477,1-1
	S3.5523,2.0002,3,2.0002z"></path></svg>