<svg xmlns="http://www.w3.org/2000/svg" viewBox="0 0 17 17" height="17" width="17"><title>harbor-11.svg</title><rect fill="none" x="0" y="0" width="17" height="17"></rect><path fill="rgba(255,255,255,0.25)" transform="translate(3 3)" d="M5.5,0C4.1193,0,3,1.1193,3,2.5c0.0018,1.0981,0.7217,2.0466,1.75,2.3711V9.416
	c-0.659-0.115-1.3381-0.3753-1.8926-0.8574C2.0886,7.8901,1.5,6.8297,1.5,5c0.0055-0.4226-0.3391-0.7664-0.7617-0.7598
	C0.3248,4.2467-0.0054,4.5865,0,5c0,2.1703,0.7731,3.7349,1.873,4.6914S4.3333,11,5.5,11s2.527-0.3521,3.627-1.3086S11,7.1703,11,5
	c0.0143-1.0142-1.5143-1.0142-1.5,0c0,1.8297-0.5886,2.8901-1.3574,3.5586C7.5881,9.0407,6.909,9.3011,6.25,9.416V4.875
	C7.2795,4.55,7.9999,3.5995,8,2.5C8,1.1193,6.8807,0,5.5,0z M5.5,1.5c0.5523,0,1,0.4477,1,1s-0.4477,1-1,1s-1-0.4477-1-1
	S4.9477,1.5,5.5,1.5z" style="stroke-linejoin:round;stroke-miterlimit:4px;" stroke="rgba(255,255,255,0.25)" stroke-width="2"></path><path fill="#444444" transform="translate(3 3)" d="M5.5,0C4.1193,0,3,1.1193,3,2.5c0.0018,1.0981,0.7217,2.0466,1.75,2.3711V9.416
	c-0.659-0.115-1.3381-0.3753-1.8926-0.8574C2.0886,7.8901,1.5,6.8297,1.5,5c0.0055-0.4226-0.3391-0.7664-0.7617-0.7598
	C0.3248,4.2467-0.0054,4.5865,0,5c0,2.1703,0.7731,3.7349,1.873,4.6914S4.3333,11,5.5,11s2.527-0.3521,3.627-1.3086S11,7.1703,11,5
	c0.0143-1.0142-1.5143-1.0142-1.5,0c0,1.8297-0.5886,2.8901-1.3574,3.5586C7.5881,9.0407,6.909,9.3011,6.25,9.416V4.875
	C7.2795,4.55,7.9999,3.5995,8,2.5C8,1.1193,6.8807,0,5.5,0z M5.5,1.5c0.5523,0,1,0.4477,1,1s-0.4477,1-1,1s-1-0.4477-1-1
	S4.9477,1.5,5.5,1.5z"></path></svg>