<svg xmlns="http://www.w3.org/2000/svg" viewBox="0 0 17 17" height="17" width="17"><title>information-11.svg</title><rect fill="none" x="0" y="0" width="17" height="17"></rect><path fill="rgba(255,255,255,0.25)" transform="translate(3 3)" d="
	M5.5989,0.9391c-0.6,0-1.1,0.5-1.1,1.1s0.5,1.1,1.1,1.1s1.1-0.5,1.1-1.1S6.1989,0.9391,5.5989,0.9391z M3,4L2.9989,4.7391
	C2.9989,4.7391,4.5,4.6353,4.5,6v1.5c0,1.5-1.5011,1.7391-1.5011,1.7391L3,10h5.2L8.1989,9.2391c0,0-1.2,0-1.2-1.5L7,5c0,0,0-1-1-1
	H3z" style="stroke-linejoin:round;stroke-miterlimit:4px;" stroke="rgba(255,255,255,0.25)" stroke-width="2"></path><path fill="#444444" transform="translate(3 3)" d="
	M5.5989,0.9391c-0.6,0-1.1,0.5-1.1,1.1s0.5,1.1,1.1,1.1s1.1-0.5,1.1-1.1S6.1989,0.9391,5.5989,0.9391z M3,4L2.9989,4.7391
	C2.9989,4.7391,4.5,4.6353,4.5,6v1.5c0,1.5-1.5011,1.7391-1.5011,1.7391L3,10h5.2L8.1989,9.2391c0,0-1.2,0-1.2-1.5L7,5c0,0,0-1-1-1
	H3z"></path></svg>