<?xml version="1.0" encoding="utf-8"?>
<!-- Generator: Adobe Illustrator 15.0.0, SVG Export Plug-In . SVG Version: 6.00 Build 0)  -->
<!DOCTYPE svg PUBLIC "-//W3C//DTD SVG 1.1//EN" "http://www.w3.org/Graphics/SVG/1.1/DTD/svg11.dtd">
<svg version="1.1" id="Layer_1" xmlns="http://www.w3.org/2000/svg" xmlns:xlink="http://www.w3.org/1999/xlink" x="0px" y="0px"
	 width="21px" height="21px" viewBox="0 0 21 21" enable-background="new 0 0 21 21" xml:space="preserve">
<g>
	<path fill="#706A6A" d="M15.018,4.85l-4.282-4.633c-0.08-0.08-0.178-0.12-0.29-0.12c-0.104,0-0.197,0.04-0.277,0.12L5.946,4.85
		c-0.104,0.129-0.125,0.27-0.06,0.422c0.064,0.153,0.181,0.229,0.35,0.229h3.392v15.055c0,0.113,0.036,0.205,0.109,0.277
		c0.072,0.072,0.164,0.108,0.277,0.108h0.937c0.112,0,0.205-0.036,0.276-0.108c0.073-0.072,0.109-0.164,0.109-0.277V5.501h3.392
		c0.161,0,0.277-0.076,0.35-0.229C15.142,5.118,15.122,4.979,15.018,4.85z"/>
</g>
</svg>
