<svg xmlns="http://www.w3.org/2000/svg" viewBox="0 0 17 17" height="17" width="17"><title>place-of-worship-11.svg</title><rect fill="none" x="0" y="0" width="17" height="17"></rect><path fill="rgba(255,255,255,0.25)" transform="translate(3 3)" d="M5.52,0L4,2v1h3V2L5.52,0z M4,4L2,5v5h7V5L7,4H4z M11,5.5V10h-1V5.5C10,5.2239,10.2239,5,10.5,5S11,5.2239,11,5.5z M1,5.5
	V10H0V5.5C0,5.2239,0.2239,5,0.5,5S1,5.2239,1,5.5z" style="stroke-linejoin:round;stroke-miterlimit:4px;" stroke="rgba(255,255,255,0.25)" stroke-width="2"></path><path fill="#444444" transform="translate(3 3)" d="M5.52,0L4,2v1h3V2L5.52,0z M4,4L2,5v5h7V5L7,4H4z M11,5.5V10h-1V5.5C10,5.2239,10.2239,5,10.5,5S11,5.2239,11,5.5z M1,5.5
	V10H0V5.5C0,5.2239,0.2239,5,0.5,5S1,5.2239,1,5.5z"></path></svg>