<svg xmlns="http://www.w3.org/2000/svg" viewBox="0 0 17 17" height="17" width="17"><title>post-11.svg</title><rect fill="none" x="0" y="0" width="17" height="17"></rect><path fill="rgba(255,255,255,0.25)" transform="translate(3 3)" d="M10,5.5V9c0,0.5523-0.4477,1-1,1H2c-0.5523,0-1-0.4477-1-1V5.5C1,5.2239,1.2239,5,1.5,5c0.0692-0.0152,0.1408-0.0152,0.21,0
	l0,0L5.5,7l3.8-2l0,0c0.066-0.0138,0.134-0.0138,0.2,0C9.7761,5,10,5.2239,10,5.5z M1.25,2.92L1.25,2.92L1.33,3L5.5,5l4.19-2l0,0
	h0.06l0,0C9.9296,2.9019,10.0292,2.7025,10,2.5C10,2.2239,9.7761,2,9.5,2h-8C1.2239,2,1,2.2239,1,2.5
	C1.0026,2.6745,1.0978,2.8345,1.25,2.92z" style="stroke-linejoin:round;stroke-miterlimit:4px;" stroke="rgba(255,255,255,0.25)" stroke-width="2"></path><path fill="#444444" transform="translate(3 3)" d="M10,5.5V9c0,0.5523-0.4477,1-1,1H2c-0.5523,0-1-0.4477-1-1V5.5C1,5.2239,1.2239,5,1.5,5c0.0692-0.0152,0.1408-0.0152,0.21,0
	l0,0L5.5,7l3.8-2l0,0c0.066-0.0138,0.134-0.0138,0.2,0C9.7761,5,10,5.2239,10,5.5z M1.25,2.92L1.25,2.92L1.33,3L5.5,5l4.19-2l0,0
	h0.06l0,0C9.9296,2.9019,10.0292,2.7025,10,2.5C10,2.2239,9.7761,2,9.5,2h-8C1.2239,2,1,2.2239,1,2.5
	C1.0026,2.6745,1.0978,2.8345,1.25,2.92z"></path></svg>