<svg xmlns="http://www.w3.org/2000/svg" viewBox="0 0 17 17" height="17" width="17"><title>town-hall-11.svg</title><rect fill="none" x="0" y="0" width="17" height="17"></rect><path fill="rgba(255,255,255,0.25)" transform="translate(3 3)" d="M5.5,0L1,2v1h9V2L5.5,0z M2,4v4L1,9v1h9V9L9,8V4H2z M3,5h1v3H3V5z M5,5h1v3H5V5z M7,5h1v3H7V5z" style="stroke-linejoin:round;stroke-miterlimit:4px;" stroke="rgba(255,255,255,0.25)" stroke-width="2"></path><path fill="#444444" transform="translate(3 3)" d="M5.5,0L1,2v1h9V2L5.5,0z M2,4v4L1,9v1h9V9L9,8V4H2z M3,5h1v3H3V5z M5,5h1v3H5V5z M7,5h1v3H7V5z"></path></svg>