<svg xmlns="http://www.w3.org/2000/svg" viewBox="0 0 17 17" height="17" width="17"><title>ice-cream-11.svg</title><rect fill="none" x="0" y="0" width="17" height="17"></rect><path fill="rgba(255,255,255,0.25)" transform="translate(3 3)" d="M4,6c0.541,0.0007,1.0676-0.1748,1.5-0.5C5.9324,5.8252,6.459,6.0007,7,6l-1,4.69c-0.1082,0.2541-0.4019,0.3723-0.656,0.264
	c-0.1188-0.0506-0.2134-0.1452-0.264-0.264L4,6z M7,2H6.91c0.2826-0.7787-0.1195-1.6391-0.8982-1.9218S4.3726,0.1978,4.09,0.9765
	C3.97,1.3071,3.97,1.6694,4.09,2H4C3.1716,2,2.5,2.6716,2.5,3.5S3.1716,5,4,5s1.5-0.6716,1.5-1.5l0,0l0,0l0,0
	C5.5,4.3284,6.1716,5,7,5s1.5-0.6716,1.5-1.5S7.8284,2,7,2z" style="stroke-linejoin:round;stroke-miterlimit:4px;" stroke="rgba(255,255,255,0.25)" stroke-width="2"></path><path fill="#444444" transform="translate(3 3)" d="M4,6c0.541,0.0007,1.0676-0.1748,1.5-0.5C5.9324,5.8252,6.459,6.0007,7,6l-1,4.69c-0.1082,0.2541-0.4019,0.3723-0.656,0.264
	c-0.1188-0.0506-0.2134-0.1452-0.264-0.264L4,6z M7,2H6.91c0.2826-0.7787-0.1195-1.6391-0.8982-1.9218S4.3726,0.1978,4.09,0.9765
	C3.97,1.3071,3.97,1.6694,4.09,2H4C3.1716,2,2.5,2.6716,2.5,3.5S3.1716,5,4,5s1.5-0.6716,1.5-1.5l0,0l0,0l0,0
	C5.5,4.3284,6.1716,5,7,5s1.5-0.6716,1.5-1.5S7.8284,2,7,2z"></path></svg>