<svg xmlns="http://www.w3.org/2000/svg" viewBox="0 0 17 17" height="17" width="17"><title>music-11.svg</title><rect fill="none" x="0" y="0" width="17" height="17"></rect><path fill="rgba(255,255,255,0.25)" transform="translate(3 3)" d="M9.5,0.5C9.4238,0.4993,9.3484,0.5164,9.28,0.55L3.5,2C3.2239,2,3,2.2239,3,2.5v4.59
	C2.219,6.8139,1.3619,7.2232,1.0858,8.0042S1.219,9.6423,2,9.9184s1.6381-0.1332,1.9142-0.9142C3.9715,8.8423,4.0005,8.6717,4,8.5
	V5.38l5-1.25v1.46C8.219,5.3139,7.3619,5.7232,7.0858,6.5042C6.8097,7.2853,7.219,8.1423,8,8.4184s1.6381-0.1332,1.9142-0.9142
	C9.9715,7.3423,10.0005,7.1717,10,7V1C10,0.7239,9.7761,0.5,9.5,0.5z M4,4.38v-1.5l5-1.25v1.5L4,4.38z" style="stroke-linejoin:round;stroke-miterlimit:4px;" stroke="rgba(255,255,255,0.25)" stroke-width="2"></path><path fill="#444444" transform="translate(3 3)" d="M9.5,0.5C9.4238,0.4993,9.3484,0.5164,9.28,0.55L3.5,2C3.2239,2,3,2.2239,3,2.5v4.59
	C2.219,6.8139,1.3619,7.2232,1.0858,8.0042S1.219,9.6423,2,9.9184s1.6381-0.1332,1.9142-0.9142C3.9715,8.8423,4.0005,8.6717,4,8.5
	V5.38l5-1.25v1.46C8.219,5.3139,7.3619,5.7232,7.0858,6.5042C6.8097,7.2853,7.219,8.1423,8,8.4184s1.6381-0.1332,1.9142-0.9142
	C9.9715,7.3423,10.0005,7.1717,10,7V1C10,0.7239,9.7761,0.5,9.5,0.5z M4,4.38v-1.5l5-1.25v1.5L4,4.38z"></path></svg>