<svg xmlns="http://www.w3.org/2000/svg" viewBox="0 0 17 17" height="17" width="17"><title>theatre-11.svg</title><rect fill="none" x="0" y="0" width="17" height="17"></rect><path fill="rgba(255,255,255,0.25)" transform="translate(3 3)" d="M0.6055,0.6992C0.3027,0.6992,0,1.0019,0,1.3047v3.7344C0,6.4519,0.578,8,3,8h0.5V6.1836L1.2109,6.1758
	c0,0,0.3026-1.1367,1.8164-1.1367c0.3028,0,0.4036,0.0006,0.6055,0.1016V3.7266c0-0.6055,0.2018-1.0078,0.6055-1.3105
	C4.541,2.1133,4.789,2,5.3945,2H6V1.3945c0-0.3028-0.1972-0.6582-0.5-0.6582c-0.6055,0-1.1607,0.5684-2.4727,0.5684
	C2.0182,1.3047,1.211,0.6992,0.6055,0.6992z M1.75,2.5c0.4142,0,0.75,0.3358,0.75,0.75S2.1642,4,1.75,4S1,3.6642,1,3.25
	S1.3358,2.5,1.75,2.5z M5.5,3C5.1972,3,4.9453,3.4238,4.9453,3.7266v3.7344c0,1.4128,0.6053,3.0273,3.0273,3.0273
	S11,8.7729,11,7.4609V3.7266C11,3.4238,10.8028,3,10.5,3C9.8945,3,8.9083,3.5,8,3.5S6.1055,3,5.5,3z M6.75,5
	C7.1642,5,7.5,5.3358,7.5,5.75S7.1642,6.5,6.75,6.5S6,6.1642,6,5.75S6.3358,5,6.75,5z M9.25,5C9.6642,5,10,5.3358,10,5.75
	S9.6642,6.5,9.25,6.5S8.5,6.1642,8.5,5.75S8.8358,5,9.25,5z M6.1562,8.0664h3.7344c0,0-0.3026,1.2109-1.8164,1.2109
	S6.1562,8.0664,6.1562,8.0664z" style="stroke-linejoin:round;stroke-miterlimit:4px;" stroke="rgba(255,255,255,0.25)" stroke-width="2"></path><path fill="#444444" transform="translate(3 3)" d="M0.6055,0.6992C0.3027,0.6992,0,1.0019,0,1.3047v3.7344C0,6.4519,0.578,8,3,8h0.5V6.1836L1.2109,6.1758
	c0,0,0.3026-1.1367,1.8164-1.1367c0.3028,0,0.4036,0.0006,0.6055,0.1016V3.7266c0-0.6055,0.2018-1.0078,0.6055-1.3105
	C4.541,2.1133,4.789,2,5.3945,2H6V1.3945c0-0.3028-0.1972-0.6582-0.5-0.6582c-0.6055,0-1.1607,0.5684-2.4727,0.5684
	C2.0182,1.3047,1.211,0.6992,0.6055,0.6992z M1.75,2.5c0.4142,0,0.75,0.3358,0.75,0.75S2.1642,4,1.75,4S1,3.6642,1,3.25
	S1.3358,2.5,1.75,2.5z M5.5,3C5.1972,3,4.9453,3.4238,4.9453,3.7266v3.7344c0,1.4128,0.6053,3.0273,3.0273,3.0273
	S11,8.7729,11,7.4609V3.7266C11,3.4238,10.8028,3,10.5,3C9.8945,3,8.9083,3.5,8,3.5S6.1055,3,5.5,3z M6.75,5
	C7.1642,5,7.5,5.3358,7.5,5.75S7.1642,6.5,6.75,6.5S6,6.1642,6,5.75S6.3358,5,6.75,5z M9.25,5C9.6642,5,10,5.3358,10,5.75
	S9.6642,6.5,9.25,6.5S8.5,6.1642,8.5,5.75S8.8358,5,9.25,5z M6.1562,8.0664h3.7344c0,0-0.3026,1.2109-1.8164,1.2109
	S6.1562,8.0664,6.1562,8.0664z"></path></svg>