<?xml version="1.0" encoding="utf-8"?>
<svg version="1.1" id="Layer_1" xmlns="http://www.w3.org/2000/svg" xmlns:xlink="http://www.w3.org/1999/xlink" x="0px" y="0px"
	 width="16" height="8" viewBox="9.384 4 16 8" enable-background="new 9.384 4 16 8" xml:space="preserve">
<path fill="rgba(50,50,50,0.05)" d="M21.936,6.262c-0.128-0.271-0.4-0.429-0.706-0.421c-0.299,0.017-0.559,0.213-0.655,0.497
	c-0.367,1.071-2.339,2.204-3.193,2.204c-2.326,0-3.405-2.191-3.449-2.28c-0.128-0.271-0.39-0.429-0.706-0.421
	c-0.299,0.017-0.559,0.213-0.656,0.497c-0.366,1.071-2.339,2.204-3.191,2.204v1.471c1.067,0,2.869-0.86,3.908-2.068
	c0.729,0.908,2.059,2.068,4.094,2.068c1.067,0,2.87-0.86,3.909-2.068c0.729,0.908,2.059,2.068,4.094,2.068V8.543
	C23.059,8.543,21.979,6.352,21.936,6.262z"/>
</svg>
